<?xml version="1.0" encoding="UTF-8" standalone="no"?>
<!DOCTYPE svg PUBLIC "-//W3C//DTD SVG 1.1//EN" "http://www.w3.org/Graphics/SVG/1.1/DTD/svg11.dtd">
<svg width = "8.500000in"  height = "11.000000in"  viewBox="0 0 5100 6600" xmlns="http://www.w3.org/2000/svg">
<rect x="0" y="0" width="5100" height="6600"
fill= "rgb(255,255,255)" stroke= "rgb(255,255,255)" stroke-width="8" /> 
<polyline fill="none" points = "2415.6,870 4230,870 "  stroke="rgb(0,0,255)" stroke-width="5" stroke-dasharray="20 5"  /> 
<polyline fill="none" points = "2443.6,1438.95 2438.51,1444.04 2433.42,1451.68 2428.33,1461.86 2425.78,1474.59 2425.78,1484.77 2428.33,1497.5 2433.42,1507.68 2438.51,1515.31 2443.6,1520.4 "  stroke="rgb(0,0,0)" stroke-width="5"  /> 
<polyline fill="none" points = "2438.51,1444.04 2433.42,1454.22 2430.87,1461.86 2428.33,1474.59 2428.33,1484.77 2430.87,1497.5 2433.42,1505.13 2438.51,1515.31 "  stroke="rgb(0,0,0)" stroke-width="5"  /> 
<polyline fill="none" points = "2466.51,1459.31 2471.6,1456.77 2479.24,1449.13 2479.24,1502.59 "  stroke="rgb(0,0,0)" stroke-width="5"  /> 
<polyline fill="none" points = "2476.69,1451.68 2476.69,1502.59 "  stroke="rgb(0,0,0)" stroke-width="5"  /> 
<polyline fill="none" points = "2466.51,1502.59 2489.42,1502.59 "  stroke="rgb(0,0,0)" stroke-width="5"  /> 
<polyline fill="none" points = "2509.78,1438.95 2514.87,1444.04 2519.96,1451.68 2525.05,1461.86 2527.6,1474.59 2527.6,1484.77 2525.05,1497.5 2519.96,1507.68 2514.87,1515.31 2509.78,1520.4 "  stroke="rgb(0,0,0)" stroke-width="5"  /> 
<polyline fill="none" points = "2514.87,1444.04 2519.96,1454.22 2522.51,1461.86 2525.05,1474.59 2525.05,1484.77 2522.51,1497.5 2519.96,1505.13 2514.87,1515.31 "  stroke="rgb(0,0,0)" stroke-width="5"  /> 
<polyline fill="none" points = "2659.96,1456.77 2662.51,1449.13 2662.51,1464.4 2659.96,1456.77 2654.87,1451.68 2647.24,1449.13 2639.6,1449.13 2631.96,1451.68 2626.87,1456.77 2626.87,1461.86 2629.42,1466.95 2631.96,1469.5 2637.05,1472.04 2652.33,1477.13 2657.42,1479.68 2662.51,1484.77 "  stroke="rgb(0,0,0)" stroke-width="5"  /> 
<polyline fill="none" points = "2626.87,1461.86 2631.96,1466.95 2637.05,1469.5 2652.33,1474.59 2657.42,1477.13 2659.96,1479.68 2662.51,1484.77 2662.51,1494.95 2657.42,1500.04 2649.78,1502.59 2642.15,1502.59 2634.51,1500.04 2629.42,1494.95 2626.87,1487.31 2626.87,1502.59 2629.42,1494.95 "  stroke="rgb(0,0,0)" stroke-width="5"  /> 
<polyline fill="none" points = "2682.87,1449.13 2680.33,1451.68 2682.87,1454.22 2685.42,1451.68 2682.87,1449.13 "  stroke="rgb(0,0,0)" stroke-width="5"  /> 
<polyline fill="none" points = "2682.87,1466.95 2682.87,1502.59 "  stroke="rgb(0,0,0)" stroke-width="5"  /> 
<polyline fill="none" points = "2685.42,1466.95 2685.42,1502.59 "  stroke="rgb(0,0,0)" stroke-width="5"  /> 
<polyline fill="none" points = "2675.24,1466.95 2685.42,1466.95 "  stroke="rgb(0,0,0)" stroke-width="5"  /> 
<polyline fill="none" points = "2675.24,1502.59 2693.05,1502.59 "  stroke="rgb(0,0,0)" stroke-width="5"  /> 
<polyline fill="none" points = "2705.78,1449.13 2705.78,1464.4 "  stroke="rgb(0,0,0)" stroke-width="5"  /> 
<polyline fill="none" points = "2705.78,1459.31 2708.33,1454.22 2713.42,1449.13 2718.51,1449.13 2731.24,1456.77 2736.33,1456.77 2738.87,1454.22 2741.42,1449.13 "  stroke="rgb(0,0,0)" stroke-width="5"  /> 
<polyline fill="none" points = "2708.33,1454.22 2713.42,1451.68 2718.51,1451.68 2731.24,1456.77 "  stroke="rgb(0,0,0)" stroke-width="5"  /> 
<polyline fill="none" points = "2741.42,1449.13 2741.42,1456.77 2738.87,1464.4 2728.69,1477.13 2726.15,1482.22 2723.6,1489.86 2723.6,1502.59 "  stroke="rgb(0,0,0)" stroke-width="5"  /> 
<polyline fill="none" points = "2738.87,1464.4 2726.15,1477.13 2723.6,1482.22 2721.05,1489.86 2721.05,1502.59 "  stroke="rgb(0,0,0)" stroke-width="5"  /> 
<polyline fill="none" points = "2771.96,1449.13 2764.33,1451.68 2759.24,1459.31 2756.69,1472.04 2756.69,1479.68 2759.24,1492.4 2764.33,1500.04 2771.96,1502.59 2777.05,1502.59 2784.69,1500.04 2789.78,1492.4 2792.33,1479.68 2792.33,1472.04 2789.78,1459.31 2784.69,1451.68 2777.05,1449.13 2771.96,1449.13 "  stroke="rgb(0,0,0)" stroke-width="5"  /> 
<polyline fill="none" points = "2771.96,1449.13 2766.87,1451.68 2764.33,1454.22 2761.78,1459.31 2759.24,1472.04 2759.24,1479.68 2761.78,1492.4 2764.33,1497.5 2766.87,1500.04 2771.96,1502.59 "  stroke="rgb(0,0,0)" stroke-width="5"  /> 
<polyline fill="none" points = "2777.05,1502.59 2782.15,1500.04 2784.69,1497.5 2787.24,1492.4 2789.78,1479.68 2789.78,1472.04 2787.24,1459.31 2784.69,1454.22 2782.15,1451.68 2777.05,1449.13 "  stroke="rgb(0,0,0)" stroke-width="5"  /> 
<polyline fill="none" points = "2843.24,1456.77 2845.78,1464.4 2845.78,1449.13 2843.24,1456.77 2838.15,1451.68 2830.51,1449.13 2825.42,1449.13 2817.78,1451.68 2812.69,1456.77 2810.15,1461.86 2807.6,1469.5 2807.6,1482.22 2810.15,1489.86 2812.69,1494.95 2817.78,1500.04 2825.42,1502.59 2830.51,1502.59 2838.15,1500.04 2843.24,1494.95 "  stroke="rgb(0,0,0)" stroke-width="5"  /> 
<polyline fill="none" points = "2825.42,1449.13 2820.33,1451.68 2815.24,1456.77 2812.69,1461.86 2810.15,1469.5 2810.15,1482.22 2812.69,1489.86 2815.24,1494.95 2820.33,1500.04 2825.42,1502.59 "  stroke="rgb(0,0,0)" stroke-width="5"  /> 
<polyline fill="none" points = "2843.24,1482.22 2843.24,1502.59 "  stroke="rgb(0,0,0)" stroke-width="5"  /> 
<polyline fill="none" points = "2845.78,1482.22 2845.78,1502.59 "  stroke="rgb(0,0,0)" stroke-width="5"  /> 
<polyline fill="none" points = "2835.6,1482.22 2853.42,1482.22 "  stroke="rgb(0,0,0)" stroke-width="5"  /> 
<polyline fill="none" points = "2868.69,1482.22 2899.24,1482.22 2899.24,1477.13 2896.69,1472.04 2894.15,1469.5 2889.05,1466.95 2881.42,1466.95 2873.78,1469.5 2868.69,1474.59 2866.15,1482.22 2866.15,1487.31 2868.69,1494.95 2873.78,1500.04 2881.42,1502.59 2886.51,1502.59 2894.15,1500.04 2899.24,1494.95 "  stroke="rgb(0,0,0)" stroke-width="5"  /> 
<polyline fill="none" points = "2896.69,1482.22 2896.69,1474.59 2894.15,1469.5 "  stroke="rgb(0,0,0)" stroke-width="5"  /> 
<polyline fill="none" points = "2881.42,1466.95 2876.33,1469.5 2871.24,1474.59 2868.69,1482.22 2868.69,1487.31 2871.24,1494.95 2876.33,1500.04 2881.42,1502.59 "  stroke="rgb(0,0,0)" stroke-width="5"  /> 
<polyline fill="none" points = "2917.05,1459.31 2919.6,1461.86 2917.05,1464.4 2914.51,1461.86 2914.51,1459.31 2917.05,1454.22 2919.6,1451.68 2927.24,1449.13 2937.42,1449.13 2945.05,1451.68 2947.6,1456.77 2947.6,1464.4 2945.05,1469.5 2937.42,1472.04 2929.78,1472.04 "  stroke="rgb(0,0,0)" stroke-width="5"  /> 
<polyline fill="none" points = "2937.42,1449.13 2942.51,1451.68 2945.05,1456.77 2945.05,1464.4 2942.51,1469.5 2937.42,1472.04 "  stroke="rgb(0,0,0)" stroke-width="5"  /> 
<polyline fill="none" points = "2937.42,1472.04 2942.51,1474.59 2947.6,1479.68 2950.15,1484.77 2950.15,1492.4 2947.6,1497.5 2945.05,1500.04 2937.42,1502.59 2927.24,1502.59 2919.6,1500.04 2917.05,1497.5 2914.51,1492.4 2914.51,1489.86 2917.05,1487.31 2919.6,1489.86 2917.05,1492.4 "  stroke="rgb(0,0,0)" stroke-width="5"  /> 
<polyline fill="none" points = "2945.05,1477.13 2947.6,1484.77 2947.6,1492.4 2945.05,1497.5 2942.51,1500.04 2937.42,1502.59 "  stroke="rgb(0,0,0)" stroke-width="5"  /> 
<polyline fill="none" points = "2980.69,1449.13 2973.05,1451.68 2967.96,1459.31 2965.42,1472.04 2965.42,1479.68 2967.96,1492.4 2973.05,1500.04 2980.69,1502.59 2985.78,1502.59 2993.42,1500.04 2998.51,1492.4 3001.05,1479.68 3001.05,1472.04 2998.51,1459.31 2993.42,1451.68 2985.78,1449.13 2980.69,1449.13 "  stroke="rgb(0,0,0)" stroke-width="5"  /> 
<polyline fill="none" points = "2980.69,1449.13 2975.6,1451.68 2973.05,1454.22 2970.51,1459.31 2967.96,1472.04 2967.96,1479.68 2970.51,1492.4 2973.05,1497.5 2975.6,1500.04 2980.69,1502.59 "  stroke="rgb(0,0,0)" stroke-width="5"  /> 
<polyline fill="none" points = "2985.78,1502.59 2990.87,1500.04 2993.42,1497.5 2995.96,1492.4 2998.51,1479.68 2998.51,1472.04 2995.96,1459.31 2993.42,1454.22 2990.87,1451.68 2985.78,1449.13 "  stroke="rgb(0,0,0)" stroke-width="5"  /> 
<polyline fill="none" points = "3102.87,1449.13 3097.78,1474.59 "  stroke="rgb(0,0,0)" stroke-width="5"  /> 
<polyline fill="none" points = "3097.78,1474.59 3102.87,1469.5 3110.51,1466.95 3118.15,1466.95 3125.78,1469.5 3130.87,1474.59 3133.42,1482.22 3133.42,1487.31 3130.87,1494.95 3125.78,1500.04 3118.15,1502.59 3110.51,1502.59 3102.87,1500.04 3100.33,1497.5 3097.78,1492.4 3097.78,1489.86 3100.33,1487.31 3102.87,1489.86 3100.33,1492.4 "  stroke="rgb(0,0,0)" stroke-width="5"  /> 
<polyline fill="none" points = "3118.15,1466.95 3123.24,1469.5 3128.33,1474.59 3130.87,1482.22 3130.87,1487.31 3128.33,1494.95 3123.24,1500.04 3118.15,1502.59 "  stroke="rgb(0,0,0)" stroke-width="5"  /> 
<polyline fill="none" points = "3102.87,1449.13 3128.33,1449.13 "  stroke="rgb(0,0,0)" stroke-width="5"  /> 
<polyline fill="none" points = "3102.87,1451.68 3115.6,1451.68 3128.33,1449.13 "  stroke="rgb(0,0,0)" stroke-width="5"  /> 
<polyline fill="none" points = "3163.96,1449.13 3156.33,1451.68 3151.24,1459.31 3148.69,1472.04 3148.69,1479.68 3151.24,1492.4 3156.33,1500.04 3163.96,1502.59 3169.05,1502.59 3176.69,1500.04 3181.78,1492.4 3184.33,1479.68 3184.33,1472.04 3181.78,1459.31 3176.69,1451.68 3169.05,1449.13 3163.96,1449.13 "  stroke="rgb(0,0,0)" stroke-width="5"  /> 
<polyline fill="none" points = "3163.96,1449.13 3158.87,1451.68 3156.33,1454.22 3153.78,1459.31 3151.24,1472.04 3151.24,1479.68 3153.78,1492.4 3156.33,1497.5 3158.87,1500.04 3163.96,1502.59 "  stroke="rgb(0,0,0)" stroke-width="5"  /> 
<polyline fill="none" points = "3169.05,1502.59 3174.15,1500.04 3176.69,1497.5 3179.24,1492.4 3181.78,1479.68 3181.78,1472.04 3179.24,1459.31 3176.69,1454.22 3174.15,1451.68 3169.05,1449.13 "  stroke="rgb(0,0,0)" stroke-width="5"  /> 
<polyline fill="none" points = "3204.69,1497.5 3202.15,1500.04 3204.69,1502.59 3207.24,1500.04 3204.69,1497.5 "  stroke="rgb(0,0,0)" stroke-width="5"  /> 
<polyline fill="none" points = "3240.33,1449.13 3232.69,1451.68 3227.6,1459.31 3225.05,1472.04 3225.05,1479.68 3227.6,1492.4 3232.69,1500.04 3240.33,1502.59 3245.42,1502.59 3253.05,1500.04 3258.15,1492.4 3260.69,1479.68 3260.69,1472.04 3258.15,1459.31 3253.05,1451.68 3245.42,1449.13 3240.33,1449.13 "  stroke="rgb(0,0,0)" stroke-width="5"  /> 
<polyline fill="none" points = "3240.33,1449.13 3235.24,1451.68 3232.69,1454.22 3230.15,1459.31 3227.6,1472.04 3227.6,1479.68 3230.15,1492.4 3232.69,1497.5 3235.24,1500.04 3240.33,1502.59 "  stroke="rgb(0,0,0)" stroke-width="5"  /> 
<polyline fill="none" points = "3245.42,1502.59 3250.51,1500.04 3253.05,1497.5 3255.6,1492.4 3258.15,1479.68 3258.15,1472.04 3255.6,1459.31 3253.05,1454.22 3250.51,1451.68 3245.42,1449.13 "  stroke="rgb(0,0,0)" stroke-width="5"  /> 
<polyline fill="none" points = "3291.24,1449.13 3283.6,1451.68 3278.51,1459.31 3275.96,1472.04 3275.96,1479.68 3278.51,1492.4 3283.6,1500.04 3291.24,1502.59 3296.33,1502.59 3303.96,1500.04 3309.05,1492.4 3311.6,1479.68 3311.6,1472.04 3309.05,1459.31 3303.96,1451.68 3296.33,1449.13 3291.24,1449.13 "  stroke="rgb(0,0,0)" stroke-width="5"  /> 
<polyline fill="none" points = "3291.24,1449.13 3286.15,1451.68 3283.6,1454.22 3281.05,1459.31 3278.51,1472.04 3278.51,1479.68 3281.05,1492.4 3283.6,1497.5 3286.15,1500.04 3291.24,1502.59 "  stroke="rgb(0,0,0)" stroke-width="5"  /> 
<polyline fill="none" points = "3296.33,1502.59 3301.42,1500.04 3303.96,1497.5 3306.51,1492.4 3309.05,1479.68 3309.05,1472.04 3306.51,1459.31 3303.96,1454.22 3301.42,1451.68 3296.33,1449.13 "  stroke="rgb(0,0,0)" stroke-width="5"  /> 
<polyline fill="none" points = "3387.96,1438.95 3382.87,1444.04 3377.78,1451.68 3372.69,1461.86 3370.15,1474.59 3370.15,1484.77 3372.69,1497.5 3377.78,1507.68 3382.87,1515.31 3387.96,1520.4 "  stroke="rgb(0,0,0)" stroke-width="5"  /> 
<polyline fill="none" points = "3382.87,1444.04 3377.78,1454.22 3375.24,1461.86 3372.69,1474.59 3372.69,1484.77 3375.24,1497.5 3377.78,1505.13 3382.87,1515.31 "  stroke="rgb(0,0,0)" stroke-width="5"  /> 
<polyline fill="none" points = "3408.33,1466.95 3408.33,1502.59 "  stroke="rgb(0,0,0)" stroke-width="5"  /> 
<polyline fill="none" points = "3410.87,1466.95 3410.87,1502.59 "  stroke="rgb(0,0,0)" stroke-width="5"  /> 
<polyline fill="none" points = "3410.87,1474.59 3415.96,1469.5 3423.6,1466.95 3428.69,1466.95 3436.33,1469.5 3438.87,1474.59 3438.87,1502.59 "  stroke="rgb(0,0,0)" stroke-width="5"  /> 
<polyline fill="none" points = "3428.69,1466.95 3433.78,1469.5 3436.33,1474.59 3436.33,1502.59 "  stroke="rgb(0,0,0)" stroke-width="5"  /> 
<polyline fill="none" points = "3400.69,1466.95 3410.87,1466.95 "  stroke="rgb(0,0,0)" stroke-width="5"  /> 
<polyline fill="none" points = "3400.69,1502.59 3418.51,1502.59 "  stroke="rgb(0,0,0)" stroke-width="5"  /> 
<polyline fill="none" points = "3428.69,1502.59 3446.51,1502.59 "  stroke="rgb(0,0,0)" stroke-width="5"  /> 
<polyline fill="none" points = "3464.33,1466.95 3464.33,1502.59 "  stroke="rgb(0,0,0)" stroke-width="5"  /> 
<polyline fill="none" points = "3466.87,1466.95 3466.87,1502.59 "  stroke="rgb(0,0,0)" stroke-width="5"  /> 
<polyline fill="none" points = "3466.87,1474.59 3471.96,1469.5 3479.6,1466.95 3484.69,1466.95 3492.33,1469.5 3494.87,1474.59 3494.87,1502.59 "  stroke="rgb(0,0,0)" stroke-width="5"  /> 
<polyline fill="none" points = "3484.69,1466.95 3489.78,1469.5 3492.33,1474.59 3492.33,1502.59 "  stroke="rgb(0,0,0)" stroke-width="5"  /> 
<polyline fill="none" points = "3494.87,1474.59 3499.96,1469.5 3507.6,1466.95 3512.69,1466.95 3520.33,1469.5 3522.87,1474.59 3522.87,1502.59 "  stroke="rgb(0,0,0)" stroke-width="5"  /> 
<polyline fill="none" points = "3512.69,1466.95 3517.78,1469.5 3520.33,1474.59 3520.33,1502.59 "  stroke="rgb(0,0,0)" stroke-width="5"  /> 
<polyline fill="none" points = "3456.69,1466.95 3466.87,1466.95 "  stroke="rgb(0,0,0)" stroke-width="5"  /> 
<polyline fill="none" points = "3456.69,1502.59 3474.51,1502.59 "  stroke="rgb(0,0,0)" stroke-width="5"  /> 
<polyline fill="none" points = "3484.69,1502.59 3502.51,1502.59 "  stroke="rgb(0,0,0)" stroke-width="5"  /> 
<polyline fill="none" points = "3512.69,1502.59 3530.51,1502.59 "  stroke="rgb(0,0,0)" stroke-width="5"  /> 
<polyline fill="none" points = "3543.24,1438.95 3548.33,1444.04 3553.42,1451.68 3558.51,1461.86 3561.05,1474.59 3561.05,1484.77 3558.51,1497.5 3553.42,1507.68 3548.33,1515.31 3543.24,1520.4 "  stroke="rgb(0,0,0)" stroke-width="5"  /> 
<polyline fill="none" points = "3548.33,1444.04 3553.42,1454.22 3555.96,1461.86 3558.51,1474.59 3558.51,1484.77 3555.96,1497.5 3553.42,1505.13 3548.33,1515.31 "  stroke="rgb(0,0,0)" stroke-width="5"  /> 
<polyline fill="none" points = "2340,859.5 2340,880.5 "  stroke="rgb(0,0,255)" stroke-width="21"  /> 
<polyline fill="none" points = "2340,870 2340,2089.35 "  stroke="rgb(0,0,0)" stroke-width="5"  /> 
<polyline fill="none" points = "2415.6,2089.35 4230,2089.35 "  stroke="rgb(0,0,255)" stroke-width="5" stroke-dasharray="20 5"  /> 
<polyline fill="none" points = "2340,2078.85 2340,2099.85 "  stroke="rgb(0,0,255)" stroke-width="21"  /> 
<polyline fill="none" points = "2443.6,2109.6 2438.51,2114.69 2433.42,2122.32 2428.33,2132.5 2425.78,2145.23 2425.78,2155.41 2428.33,2168.14 2433.42,2178.32 2438.51,2185.96 2443.6,2191.05 "  stroke="rgb(0,0,0)" stroke-width="5"  /> 
<polyline fill="none" points = "2438.51,2114.69 2433.42,2124.87 2430.87,2132.5 2428.33,2145.23 2428.33,2155.41 2430.87,2168.14 2433.42,2175.78 2438.51,2185.96 "  stroke="rgb(0,0,0)" stroke-width="5"  /> 
<polyline fill="none" points = "2461.42,2129.96 2463.96,2132.5 2461.42,2135.05 2458.87,2132.5 2458.87,2129.96 2461.42,2124.87 2463.96,2122.32 2471.6,2119.78 2481.78,2119.78 2489.42,2122.32 2491.96,2124.87 2494.51,2129.96 2494.51,2135.05 2491.96,2140.14 2484.33,2145.23 2471.6,2150.32 2466.51,2152.87 2461.42,2157.96 2458.87,2165.6 2458.87,2173.23 "  stroke="rgb(0,0,0)" stroke-width="5"  /> 
<polyline fill="none" points = "2481.78,2119.78 2486.87,2122.32 2489.42,2124.87 2491.96,2129.96 2491.96,2135.05 2489.42,2140.14 2481.78,2145.23 2471.6,2150.32 "  stroke="rgb(0,0,0)" stroke-width="5"  /> 
<polyline fill="none" points = "2458.87,2168.14 2461.42,2165.6 2466.51,2165.6 2479.24,2170.69 2486.87,2170.69 2491.96,2168.14 2494.51,2165.6 "  stroke="rgb(0,0,0)" stroke-width="5"  /> 
<polyline fill="none" points = "2466.51,2165.6 2479.24,2173.23 2489.42,2173.23 2491.96,2170.69 2494.51,2165.6 2494.51,2160.5 "  stroke="rgb(0,0,0)" stroke-width="5"  /> 
<polyline fill="none" points = "2509.78,2109.6 2514.87,2114.69 2519.96,2122.32 2525.05,2132.5 2527.6,2145.23 2527.6,2155.41 2525.05,2168.14 2519.96,2178.32 2514.87,2185.96 2509.78,2191.05 "  stroke="rgb(0,0,0)" stroke-width="5"  /> 
<polyline fill="none" points = "2514.87,2114.69 2519.96,2124.87 2522.51,2132.5 2525.05,2145.23 2525.05,2155.41 2522.51,2168.14 2519.96,2175.78 2514.87,2185.96 "  stroke="rgb(0,0,0)" stroke-width="5"  /> 
<polyline fill="none" points = "2855.96,2142.69 2858.51,2137.6 2858.51,2147.78 2855.96,2142.69 2853.42,2140.14 2848.33,2137.6 2838.15,2137.6 2833.05,2140.14 2830.51,2142.69 2830.51,2147.78 2833.05,2150.32 2838.15,2152.87 2850.87,2157.96 2855.96,2160.5 2858.51,2163.05 "  stroke="rgb(0,0,0)" stroke-width="5"  /> 
<polyline fill="none" points = "2830.51,2145.23 2833.05,2147.78 2838.15,2150.32 2850.87,2155.41 2855.96,2157.96 2858.51,2160.5 2858.51,2168.14 2855.96,2170.69 2850.87,2173.23 2840.69,2173.23 2835.6,2170.69 2833.05,2168.14 2830.51,2163.05 2830.51,2173.23 2833.05,2168.14 "  stroke="rgb(0,0,0)" stroke-width="5"  /> 
<polyline fill="none" points = "2906.87,2127.41 2909.42,2119.78 2909.42,2135.05 2906.87,2127.41 2901.78,2122.32 2894.15,2119.78 2886.51,2119.78 2878.87,2122.32 2873.78,2127.41 2873.78,2132.5 2876.33,2137.6 2878.87,2140.14 2883.96,2142.69 2899.24,2147.78 2904.33,2150.32 2909.42,2155.41 "  stroke="rgb(0,0,0)" stroke-width="5"  /> 
<polyline fill="none" points = "2873.78,2132.5 2878.87,2137.6 2883.96,2140.14 2899.24,2145.23 2904.33,2147.78 2906.87,2150.32 2909.42,2155.41 2909.42,2165.6 2904.33,2170.69 2896.69,2173.23 2889.05,2173.23 2881.42,2170.69 2876.33,2165.6 2873.78,2157.96 2873.78,2173.23 2876.33,2165.6 "  stroke="rgb(0,0,0)" stroke-width="5"  /> 
<polyline fill="none" points = "2929.78,2119.78 2927.24,2122.32 2929.78,2124.87 2932.33,2122.32 2929.78,2119.78 "  stroke="rgb(0,0,0)" stroke-width="5"  /> 
<polyline fill="none" points = "2929.78,2137.6 2929.78,2173.23 "  stroke="rgb(0,0,0)" stroke-width="5"  /> 
<polyline fill="none" points = "2932.33,2137.6 2932.33,2173.23 "  stroke="rgb(0,0,0)" stroke-width="5"  /> 
<polyline fill="none" points = "2922.15,2137.6 2932.33,2137.6 "  stroke="rgb(0,0,0)" stroke-width="5"  /> 
<polyline fill="none" points = "2922.15,2173.23 2939.96,2173.23 "  stroke="rgb(0,0,0)" stroke-width="5"  /> 
<polyline fill="none" points = "3079.96,2119.78 3074.87,2145.23 "  stroke="rgb(0,0,0)" stroke-width="5"  /> 
<polyline fill="none" points = "3074.87,2145.23 3079.96,2140.14 3087.6,2137.6 3095.24,2137.6 3102.87,2140.14 3107.96,2145.23 3110.51,2152.87 3110.51,2157.96 3107.96,2165.6 3102.87,2170.69 3095.24,2173.23 3087.6,2173.23 3079.96,2170.69 3077.42,2168.14 3074.87,2163.05 3074.87,2160.5 3077.42,2157.96 3079.96,2160.5 3077.42,2163.05 "  stroke="rgb(0,0,0)" stroke-width="5"  /> 
<polyline fill="none" points = "3095.24,2137.6 3100.33,2140.14 3105.42,2145.23 3107.96,2152.87 3107.96,2157.96 3105.42,2165.6 3100.33,2170.69 3095.24,2173.23 "  stroke="rgb(0,0,0)" stroke-width="5"  /> 
<polyline fill="none" points = "3079.96,2119.78 3105.42,2119.78 "  stroke="rgb(0,0,0)" stroke-width="5"  /> 
<polyline fill="none" points = "3079.96,2122.32 3092.69,2122.32 3105.42,2119.78 "  stroke="rgb(0,0,0)" stroke-width="5"  /> 
<polyline fill="none" points = "3130.87,2168.14 3128.33,2170.69 3130.87,2173.23 3133.42,2170.69 3130.87,2168.14 "  stroke="rgb(0,0,0)" stroke-width="5"  /> 
<polyline fill="none" points = "3166.51,2119.78 3158.87,2122.32 3153.78,2129.96 3151.24,2142.69 3151.24,2150.32 3153.78,2163.05 3158.87,2170.69 3166.51,2173.23 3171.6,2173.23 3179.24,2170.69 3184.33,2163.05 3186.87,2150.32 3186.87,2142.69 3184.33,2129.96 3179.24,2122.32 3171.6,2119.78 3166.51,2119.78 "  stroke="rgb(0,0,0)" stroke-width="5"  /> 
<polyline fill="none" points = "3166.51,2119.78 3161.42,2122.32 3158.87,2124.87 3156.33,2129.96 3153.78,2142.69 3153.78,2150.32 3156.33,2163.05 3158.87,2168.14 3161.42,2170.69 3166.51,2173.23 "  stroke="rgb(0,0,0)" stroke-width="5"  /> 
<polyline fill="none" points = "3171.6,2173.23 3176.69,2170.69 3179.24,2168.14 3181.78,2163.05 3184.33,2150.32 3184.33,2142.69 3181.78,2129.96 3179.24,2124.87 3176.69,2122.32 3171.6,2119.78 "  stroke="rgb(0,0,0)" stroke-width="5"  /> 
<polyline fill="none" points = "3217.42,2119.78 3209.78,2122.32 3204.69,2129.96 3202.15,2142.69 3202.15,2150.32 3204.69,2163.05 3209.78,2170.69 3217.42,2173.23 3222.51,2173.23 3230.15,2170.69 3235.24,2163.05 3237.78,2150.32 3237.78,2142.69 3235.24,2129.96 3230.15,2122.32 3222.51,2119.78 3217.42,2119.78 "  stroke="rgb(0,0,0)" stroke-width="5"  /> 
<polyline fill="none" points = "3217.42,2119.78 3212.33,2122.32 3209.78,2124.87 3207.24,2129.96 3204.69,2142.69 3204.69,2150.32 3207.24,2163.05 3209.78,2168.14 3212.33,2170.69 3217.42,2173.23 "  stroke="rgb(0,0,0)" stroke-width="5"  /> 
<polyline fill="none" points = "3222.51,2173.23 3227.6,2170.69 3230.15,2168.14 3232.69,2163.05 3235.24,2150.32 3235.24,2142.69 3232.69,2129.96 3230.15,2124.87 3227.6,2122.32 3222.51,2119.78 "  stroke="rgb(0,0,0)" stroke-width="5"  /> 
<polyline fill="none" points = "3314.15,2109.6 3309.05,2114.69 3303.96,2122.32 3298.87,2132.5 3296.33,2145.23 3296.33,2155.41 3298.87,2168.14 3303.96,2178.32 3309.05,2185.96 3314.15,2191.05 "  stroke="rgb(0,0,0)" stroke-width="5"  /> 
<polyline fill="none" points = "3309.05,2114.69 3303.96,2124.87 3301.42,2132.5 3298.87,2145.23 3298.87,2155.41 3301.42,2168.14 3303.96,2175.78 3309.05,2185.96 "  stroke="rgb(0,0,0)" stroke-width="5"  /> 
<polyline fill="none" points = "3334.51,2137.6 3334.51,2173.23 "  stroke="rgb(0,0,0)" stroke-width="5"  /> 
<polyline fill="none" points = "3337.05,2137.6 3337.05,2173.23 "  stroke="rgb(0,0,0)" stroke-width="5"  /> 
<polyline fill="none" points = "3337.05,2145.23 3342.15,2140.14 3349.78,2137.6 3354.87,2137.6 3362.51,2140.14 3365.05,2145.23 3365.05,2173.23 "  stroke="rgb(0,0,0)" stroke-width="5"  /> 
<polyline fill="none" points = "3354.87,2137.6 3359.96,2140.14 3362.51,2145.23 3362.51,2173.23 "  stroke="rgb(0,0,0)" stroke-width="5"  /> 
<polyline fill="none" points = "3326.87,2137.6 3337.05,2137.6 "  stroke="rgb(0,0,0)" stroke-width="5"  /> 
<polyline fill="none" points = "3326.87,2173.23 3344.69,2173.23 "  stroke="rgb(0,0,0)" stroke-width="5"  /> 
<polyline fill="none" points = "3354.87,2173.23 3372.69,2173.23 "  stroke="rgb(0,0,0)" stroke-width="5"  /> 
<polyline fill="none" points = "3390.51,2137.6 3390.51,2173.23 "  stroke="rgb(0,0,0)" stroke-width="5"  /> 
<polyline fill="none" points = "3393.05,2137.6 3393.05,2173.23 "  stroke="rgb(0,0,0)" stroke-width="5"  /> 
<polyline fill="none" points = "3393.05,2145.23 3398.15,2140.14 3405.78,2137.6 3410.87,2137.6 3418.51,2140.14 3421.05,2145.23 3421.05,2173.23 "  stroke="rgb(0,0,0)" stroke-width="5"  /> 
<polyline fill="none" points = "3410.87,2137.6 3415.96,2140.14 3418.51,2145.23 3418.51,2173.23 "  stroke="rgb(0,0,0)" stroke-width="5"  /> 
<polyline fill="none" points = "3421.05,2145.23 3426.15,2140.14 3433.78,2137.6 3438.87,2137.6 3446.51,2140.14 3449.05,2145.23 3449.05,2173.23 "  stroke="rgb(0,0,0)" stroke-width="5"  /> 
<polyline fill="none" points = "3438.87,2137.6 3443.96,2140.14 3446.51,2145.23 3446.51,2173.23 "  stroke="rgb(0,0,0)" stroke-width="5"  /> 
<polyline fill="none" points = "3382.87,2137.6 3393.05,2137.6 "  stroke="rgb(0,0,0)" stroke-width="5"  /> 
<polyline fill="none" points = "3382.87,2173.23 3400.69,2173.23 "  stroke="rgb(0,0,0)" stroke-width="5"  /> 
<polyline fill="none" points = "3410.87,2173.23 3428.69,2173.23 "  stroke="rgb(0,0,0)" stroke-width="5"  /> 
<polyline fill="none" points = "3438.87,2173.23 3456.69,2173.23 "  stroke="rgb(0,0,0)" stroke-width="5"  /> 
<polyline fill="none" points = "3469.42,2109.6 3474.51,2114.69 3479.6,2122.32 3484.69,2132.5 3487.24,2145.23 3487.24,2155.41 3484.69,2168.14 3479.6,2178.32 3474.51,2185.96 3469.42,2191.05 "  stroke="rgb(0,0,0)" stroke-width="5"  /> 
<polyline fill="none" points = "3474.51,2114.69 3479.6,2124.87 3482.15,2132.5 3484.69,2145.23 3484.69,2155.41 3482.15,2168.14 3479.6,2175.78 3474.51,2185.96 "  stroke="rgb(0,0,0)" stroke-width="5"  /> 
<polyline fill="none" points = "3548.33,2150.32 3594.15,2150.32 "  stroke="rgb(0,0,0)" stroke-width="5"  /> 
<polyline fill="none" points = "3627.24,2119.78 3619.6,2122.32 3614.51,2129.96 3611.96,2142.69 3611.96,2150.32 3614.51,2163.05 3619.6,2170.69 3627.24,2173.23 3632.33,2173.23 3639.96,2170.69 3645.05,2163.05 3647.6,2150.32 3647.6,2142.69 3645.05,2129.96 3639.96,2122.32 3632.33,2119.78 3627.24,2119.78 "  stroke="rgb(0,0,0)" stroke-width="5"  /> 
<polyline fill="none" points = "3627.24,2119.78 3622.15,2122.32 3619.6,2124.87 3617.05,2129.96 3614.51,2142.69 3614.51,2150.32 3617.05,2163.05 3619.6,2168.14 3622.15,2170.69 3627.24,2173.23 "  stroke="rgb(0,0,0)" stroke-width="5"  /> 
<polyline fill="none" points = "3632.33,2173.23 3637.42,2170.69 3639.96,2168.14 3642.51,2163.05 3645.05,2150.32 3645.05,2142.69 3642.51,2129.96 3639.96,2124.87 3637.42,2122.32 3632.33,2119.78 "  stroke="rgb(0,0,0)" stroke-width="5"  /> 
<polyline fill="none" points = "3667.96,2168.14 3665.42,2170.69 3667.96,2173.23 3670.51,2170.69 3667.96,2168.14 "  stroke="rgb(0,0,0)" stroke-width="5"  /> 
<polyline fill="none" points = "3690.87,2129.96 3693.42,2132.5 3690.87,2135.05 3688.33,2132.5 3688.33,2129.96 3690.87,2124.87 3693.42,2122.32 3701.05,2119.78 3711.24,2119.78 3718.87,2122.32 3721.42,2124.87 3723.96,2129.96 3723.96,2135.05 3721.42,2140.14 3713.78,2145.23 3701.05,2150.32 3695.96,2152.87 3690.87,2157.96 3688.33,2165.6 3688.33,2173.23 "  stroke="rgb(0,0,0)" stroke-width="5"  /> 
<polyline fill="none" points = "3711.24,2119.78 3716.33,2122.32 3718.87,2124.87 3721.42,2129.96 3721.42,2135.05 3718.87,2140.14 3711.24,2145.23 3701.05,2150.32 "  stroke="rgb(0,0,0)" stroke-width="5"  /> 
<polyline fill="none" points = "3688.33,2168.14 3690.87,2165.6 3695.96,2165.6 3708.69,2170.69 3716.33,2170.69 3721.42,2168.14 3723.96,2165.6 "  stroke="rgb(0,0,0)" stroke-width="5"  /> 
<polyline fill="none" points = "3695.96,2165.6 3708.69,2173.23 3718.87,2173.23 3721.42,2170.69 3723.96,2165.6 3723.96,2160.5 "  stroke="rgb(0,0,0)" stroke-width="5"  /> 
<polyline fill="none" points = "3741.78,2129.96 3744.33,2132.5 3741.78,2135.05 3739.24,2132.5 3739.24,2129.96 3741.78,2124.87 3744.33,2122.32 3751.96,2119.78 3762.15,2119.78 3769.78,2122.32 3772.33,2127.41 3772.33,2135.05 3769.78,2140.14 3762.15,2142.69 3754.51,2142.69 "  stroke="rgb(0,0,0)" stroke-width="5"  /> 
<polyline fill="none" points = "3762.15,2119.78 3767.24,2122.32 3769.78,2127.41 3769.78,2135.05 3767.24,2140.14 3762.15,2142.69 "  stroke="rgb(0,0,0)" stroke-width="5"  /> 
<polyline fill="none" points = "3762.15,2142.69 3767.24,2145.23 3772.33,2150.32 3774.87,2155.41 3774.87,2163.05 3772.33,2168.14 3769.78,2170.69 3762.15,2173.23 3751.96,2173.23 3744.33,2170.69 3741.78,2168.14 3739.24,2163.05 3739.24,2160.5 3741.78,2157.96 3744.33,2160.5 3741.78,2163.05 "  stroke="rgb(0,0,0)" stroke-width="5"  /> 
<polyline fill="none" points = "3769.78,2147.78 3772.33,2155.41 3772.33,2163.05 3769.78,2168.14 3767.24,2170.69 3762.15,2173.23 "  stroke="rgb(0,0,0)" stroke-width="5"  /> 
<polyline fill="none" points = "3795.24,2119.78 3790.15,2145.23 "  stroke="rgb(0,0,0)" stroke-width="5"  /> 
<polyline fill="none" points = "3790.15,2145.23 3795.24,2140.14 3802.87,2137.6 3810.51,2137.6 3818.15,2140.14 3823.24,2145.23 3825.78,2152.87 3825.78,2157.96 3823.24,2165.6 3818.15,2170.69 3810.51,2173.23 3802.87,2173.23 3795.24,2170.69 3792.69,2168.14 3790.15,2163.05 3790.15,2160.5 3792.69,2157.96 3795.24,2160.5 3792.69,2163.05 "  stroke="rgb(0,0,0)" stroke-width="5"  /> 
<polyline fill="none" points = "3810.51,2137.6 3815.6,2140.14 3820.69,2145.23 3823.24,2152.87 3823.24,2157.96 3820.69,2165.6 3815.6,2170.69 3810.51,2173.23 "  stroke="rgb(0,0,0)" stroke-width="5"  /> 
<polyline fill="none" points = "3795.24,2119.78 3820.69,2119.78 "  stroke="rgb(0,0,0)" stroke-width="5"  /> 
<polyline fill="none" points = "3795.24,2122.32 3807.96,2122.32 3820.69,2119.78 "  stroke="rgb(0,0,0)" stroke-width="5"  /> 
<polyline fill="none" points = "3902.15,2109.6 3897.05,2114.69 3891.96,2122.32 3886.87,2132.5 3884.33,2145.23 3884.33,2155.41 3886.87,2168.14 3891.96,2178.32 3897.05,2185.96 3902.15,2191.05 "  stroke="rgb(0,0,0)" stroke-width="5"  /> 
<polyline fill="none" points = "3897.05,2114.69 3891.96,2124.87 3889.42,2132.5 3886.87,2145.23 3886.87,2155.41 3889.42,2168.14 3891.96,2175.78 3897.05,2185.96 "  stroke="rgb(0,0,0)" stroke-width="5"  /> 
<polyline fill="none" points = "3919.96,2152.87 3950.51,2152.87 3950.51,2147.78 3947.96,2142.69 3945.42,2140.14 3940.33,2137.6 3932.69,2137.6 3925.05,2140.14 3919.96,2145.23 3917.42,2152.87 3917.42,2157.96 3919.96,2165.6 3925.05,2170.69 3932.69,2173.23 3937.78,2173.23 3945.42,2170.69 3950.51,2165.6 "  stroke="rgb(0,0,0)" stroke-width="5"  /> 
<polyline fill="none" points = "3947.96,2152.87 3947.96,2145.23 3945.42,2140.14 "  stroke="rgb(0,0,0)" stroke-width="5"  /> 
<polyline fill="none" points = "3932.69,2137.6 3927.6,2140.14 3922.51,2145.23 3919.96,2152.87 3919.96,2157.96 3922.51,2165.6 3927.6,2170.69 3932.69,2173.23 "  stroke="rgb(0,0,0)" stroke-width="5"  /> 
<polyline fill="none" points = "3965.78,2119.78 3983.6,2173.23 "  stroke="rgb(0,0,0)" stroke-width="5"  /> 
<polyline fill="none" points = "3968.33,2119.78 3983.6,2165.6 "  stroke="rgb(0,0,0)" stroke-width="5"  /> 
<polyline fill="none" points = "4001.42,2119.78 3983.6,2173.23 "  stroke="rgb(0,0,0)" stroke-width="5"  /> 
<polyline fill="none" points = "3960.69,2119.78 3975.96,2119.78 "  stroke="rgb(0,0,0)" stroke-width="5"  /> 
<polyline fill="none" points = "3991.24,2119.78 4006.51,2119.78 "  stroke="rgb(0,0,0)" stroke-width="5"  /> 
<polyline fill="none" points = "4016.69,2109.6 4021.78,2114.69 4026.87,2122.32 4031.96,2132.5 4034.51,2145.23 4034.51,2155.41 4031.96,2168.14 4026.87,2178.32 4021.78,2185.96 4016.69,2191.05 "  stroke="rgb(0,0,0)" stroke-width="5"  /> 
<polyline fill="none" points = "4021.78,2114.69 4026.87,2124.87 4029.42,2132.5 4031.96,2145.23 4031.96,2155.41 4029.42,2168.14 4026.87,2175.78 4021.78,2185.96 "  stroke="rgb(0,0,0)" stroke-width="5"  /> 
<polyline fill="none" points = "2340,2078.85 2340,2099.85 "  stroke="rgb(0,0,255)" stroke-width="21"  /> 
<polyline fill="none" points = "2340,2089.35 1584,2089.35 1584,2211.29 2340,2211.29 "  stroke="rgb(0,0,0)" stroke-width="5"  /> 
<polyline fill="none" points = "2415.6,2211.29 4230,2211.29 "  stroke="rgb(0,0,255)" stroke-width="5" stroke-dasharray="20 5"  /> 
<polyline fill="none" points = "2340,2200.79 2340,2221.79 "  stroke="rgb(0,0,255)" stroke-width="21"  /> 
<polyline fill="none" points = "2443.6,3389.92 2438.51,3395.01 2433.42,3402.65 2428.33,3412.83 2425.78,3425.55 2425.78,3435.74 2428.33,3448.46 2433.42,3458.65 2438.51,3466.28 2443.6,3471.37 "  stroke="rgb(0,0,0)" stroke-width="5"  /> 
<polyline fill="none" points = "2438.51,3395.01 2433.42,3405.19 2430.87,3412.83 2428.33,3425.55 2428.33,3435.74 2430.87,3448.46 2433.42,3456.1 2438.51,3466.28 "  stroke="rgb(0,0,0)" stroke-width="5"  /> 
<polyline fill="none" points = "2461.42,3410.28 2463.96,3412.83 2461.42,3415.37 2458.87,3412.83 2458.87,3410.28 2461.42,3405.19 2463.96,3402.65 2471.6,3400.1 2481.78,3400.1 2489.42,3402.65 2491.96,3407.74 2491.96,3415.37 2489.42,3420.46 2481.78,3423.01 2474.15,3423.01 "  stroke="rgb(0,0,0)" stroke-width="5"  /> 
<polyline fill="none" points = "2481.78,3400.1 2486.87,3402.65 2489.42,3407.74 2489.42,3415.37 2486.87,3420.46 2481.78,3423.01 "  stroke="rgb(0,0,0)" stroke-width="5"  /> 
<polyline fill="none" points = "2481.78,3423.01 2486.87,3425.55 2491.96,3430.65 2494.51,3435.74 2494.51,3443.37 2491.96,3448.46 2489.42,3451.01 2481.78,3453.55 2471.6,3453.55 2463.96,3451.01 2461.42,3448.46 2458.87,3443.37 2458.87,3440.83 2461.42,3438.28 2463.96,3440.83 2461.42,3443.37 "  stroke="rgb(0,0,0)" stroke-width="5"  /> 
<polyline fill="none" points = "2489.42,3428.1 2491.96,3435.74 2491.96,3443.37 2489.42,3448.46 2486.87,3451.01 2481.78,3453.55 "  stroke="rgb(0,0,0)" stroke-width="5"  /> 
<polyline fill="none" points = "2509.78,3389.92 2514.87,3395.01 2519.96,3402.65 2525.05,3412.83 2527.6,3425.55 2527.6,3435.74 2525.05,3448.46 2519.96,3458.65 2514.87,3466.28 2509.78,3471.37 "  stroke="rgb(0,0,0)" stroke-width="5"  /> 
<polyline fill="none" points = "2514.87,3395.01 2519.96,3405.19 2522.51,3412.83 2525.05,3425.55 2525.05,3435.74 2522.51,3448.46 2519.96,3456.1 2514.87,3466.28 "  stroke="rgb(0,0,0)" stroke-width="5"  /> 
<polyline fill="none" points = "2659.96,3407.74 2662.51,3400.1 2662.51,3415.37 2659.96,3407.74 2654.87,3402.65 2647.24,3400.1 2639.6,3400.1 2631.96,3402.65 2626.87,3407.74 2626.87,3412.83 2629.42,3417.92 2631.96,3420.46 2637.05,3423.01 2652.33,3428.1 2657.42,3430.65 2662.51,3435.74 "  stroke="rgb(0,0,0)" stroke-width="5"  /> 
<polyline fill="none" points = "2626.87,3412.83 2631.96,3417.92 2637.05,3420.46 2652.33,3425.55 2657.42,3428.1 2659.96,3430.65 2662.51,3435.74 2662.51,3445.92 2657.42,3451.01 2649.78,3453.55 2642.15,3453.55 2634.51,3451.01 2629.42,3445.92 2626.87,3438.28 2626.87,3453.55 2629.42,3445.92 "  stroke="rgb(0,0,0)" stroke-width="5"  /> 
<polyline fill="none" points = "2682.87,3400.1 2680.33,3402.65 2682.87,3405.19 2685.42,3402.65 2682.87,3400.1 "  stroke="rgb(0,0,0)" stroke-width="5"  /> 
<polyline fill="none" points = "2682.87,3417.92 2682.87,3453.55 "  stroke="rgb(0,0,0)" stroke-width="5"  /> 
<polyline fill="none" points = "2685.42,3417.92 2685.42,3453.55 "  stroke="rgb(0,0,0)" stroke-width="5"  /> 
<polyline fill="none" points = "2675.24,3417.92 2685.42,3417.92 "  stroke="rgb(0,0,0)" stroke-width="5"  /> 
<polyline fill="none" points = "2675.24,3453.55 2693.05,3453.55 "  stroke="rgb(0,0,0)" stroke-width="5"  /> 
<polyline fill="none" points = "2705.78,3400.1 2705.78,3415.37 "  stroke="rgb(0,0,0)" stroke-width="5"  /> 
<polyline fill="none" points = "2705.78,3410.28 2708.33,3405.19 2713.42,3400.1 2718.51,3400.1 2731.24,3407.74 2736.33,3407.74 2738.87,3405.19 2741.42,3400.1 "  stroke="rgb(0,0,0)" stroke-width="5"  /> 
<polyline fill="none" points = "2708.33,3405.19 2713.42,3402.65 2718.51,3402.65 2731.24,3407.74 "  stroke="rgb(0,0,0)" stroke-width="5"  /> 
<polyline fill="none" points = "2741.42,3400.1 2741.42,3407.74 2738.87,3415.37 2728.69,3428.1 2726.15,3433.19 2723.6,3440.83 2723.6,3453.55 "  stroke="rgb(0,0,0)" stroke-width="5"  /> 
<polyline fill="none" points = "2738.87,3415.37 2726.15,3428.1 2723.6,3433.19 2721.05,3440.83 2721.05,3453.55 "  stroke="rgb(0,0,0)" stroke-width="5"  /> 
<polyline fill="none" points = "2771.96,3400.1 2764.33,3402.65 2759.24,3410.28 2756.69,3423.01 2756.69,3430.65 2759.24,3443.37 2764.33,3451.01 2771.96,3453.55 2777.05,3453.55 2784.69,3451.01 2789.78,3443.37 2792.33,3430.65 2792.33,3423.01 2789.78,3410.28 2784.69,3402.65 2777.05,3400.1 2771.96,3400.1 "  stroke="rgb(0,0,0)" stroke-width="5"  /> 
<polyline fill="none" points = "2771.96,3400.1 2766.87,3402.65 2764.33,3405.19 2761.78,3410.28 2759.24,3423.01 2759.24,3430.65 2761.78,3443.37 2764.33,3448.46 2766.87,3451.01 2771.96,3453.55 "  stroke="rgb(0,0,0)" stroke-width="5"  /> 
<polyline fill="none" points = "2777.05,3453.55 2782.15,3451.01 2784.69,3448.46 2787.24,3443.37 2789.78,3430.65 2789.78,3423.01 2787.24,3410.28 2784.69,3405.19 2782.15,3402.65 2777.05,3400.1 "  stroke="rgb(0,0,0)" stroke-width="5"  /> 
<polyline fill="none" points = "2843.24,3407.74 2845.78,3415.37 2845.78,3400.1 2843.24,3407.74 2838.15,3402.65 2830.51,3400.1 2825.42,3400.1 2817.78,3402.65 2812.69,3407.74 2810.15,3412.83 2807.6,3420.46 2807.6,3433.19 2810.15,3440.83 2812.69,3445.92 2817.78,3451.01 2825.42,3453.55 2830.51,3453.55 2838.15,3451.01 2843.24,3445.92 "  stroke="rgb(0,0,0)" stroke-width="5"  /> 
<polyline fill="none" points = "2825.42,3400.1 2820.33,3402.65 2815.24,3407.74 2812.69,3412.83 2810.15,3420.46 2810.15,3433.19 2812.69,3440.83 2815.24,3445.92 2820.33,3451.01 2825.42,3453.55 "  stroke="rgb(0,0,0)" stroke-width="5"  /> 
<polyline fill="none" points = "2843.24,3433.19 2843.24,3453.55 "  stroke="rgb(0,0,0)" stroke-width="5"  /> 
<polyline fill="none" points = "2845.78,3433.19 2845.78,3453.55 "  stroke="rgb(0,0,0)" stroke-width="5"  /> 
<polyline fill="none" points = "2835.6,3433.19 2853.42,3433.19 "  stroke="rgb(0,0,0)" stroke-width="5"  /> 
<polyline fill="none" points = "2868.69,3433.19 2899.24,3433.19 2899.24,3428.1 2896.69,3423.01 2894.15,3420.46 2889.05,3417.92 2881.42,3417.92 2873.78,3420.46 2868.69,3425.55 2866.15,3433.19 2866.15,3438.28 2868.69,3445.92 2873.78,3451.01 2881.42,3453.55 2886.51,3453.55 2894.15,3451.01 2899.24,3445.92 "  stroke="rgb(0,0,0)" stroke-width="5"  /> 
<polyline fill="none" points = "2896.69,3433.19 2896.69,3425.55 2894.15,3420.46 "  stroke="rgb(0,0,0)" stroke-width="5"  /> 
<polyline fill="none" points = "2881.42,3417.92 2876.33,3420.46 2871.24,3425.55 2868.69,3433.19 2868.69,3438.28 2871.24,3445.92 2876.33,3451.01 2881.42,3453.55 "  stroke="rgb(0,0,0)" stroke-width="5"  /> 
<polyline fill="none" points = "2917.05,3410.28 2919.6,3412.83 2917.05,3415.37 2914.51,3412.83 2914.51,3410.28 2917.05,3405.19 2919.6,3402.65 2927.24,3400.1 2937.42,3400.1 2945.05,3402.65 2947.6,3407.74 2947.6,3415.37 2945.05,3420.46 2937.42,3423.01 2929.78,3423.01 "  stroke="rgb(0,0,0)" stroke-width="5"  /> 
<polyline fill="none" points = "2937.42,3400.1 2942.51,3402.65 2945.05,3407.74 2945.05,3415.37 2942.51,3420.46 2937.42,3423.01 "  stroke="rgb(0,0,0)" stroke-width="5"  /> 
<polyline fill="none" points = "2937.42,3423.01 2942.51,3425.55 2947.6,3430.65 2950.15,3435.74 2950.15,3443.37 2947.6,3448.46 2945.05,3451.01 2937.42,3453.55 2927.24,3453.55 2919.6,3451.01 2917.05,3448.46 2914.51,3443.37 2914.51,3440.83 2917.05,3438.28 2919.6,3440.83 2917.05,3443.37 "  stroke="rgb(0,0,0)" stroke-width="5"  /> 
<polyline fill="none" points = "2945.05,3428.1 2947.6,3435.74 2947.6,3443.37 2945.05,3448.46 2942.51,3451.01 2937.42,3453.55 "  stroke="rgb(0,0,0)" stroke-width="5"  /> 
<polyline fill="none" points = "2980.69,3400.1 2973.05,3402.65 2967.96,3410.28 2965.42,3423.01 2965.42,3430.65 2967.96,3443.37 2973.05,3451.01 2980.69,3453.55 2985.78,3453.55 2993.42,3451.01 2998.51,3443.37 3001.05,3430.65 3001.05,3423.01 2998.51,3410.28 2993.42,3402.65 2985.78,3400.1 2980.69,3400.1 "  stroke="rgb(0,0,0)" stroke-width="5"  /> 
<polyline fill="none" points = "2980.69,3400.1 2975.6,3402.65 2973.05,3405.19 2970.51,3410.28 2967.96,3423.01 2967.96,3430.65 2970.51,3443.37 2973.05,3448.46 2975.6,3451.01 2980.69,3453.55 "  stroke="rgb(0,0,0)" stroke-width="5"  /> 
<polyline fill="none" points = "2985.78,3453.55 2990.87,3451.01 2993.42,3448.46 2995.96,3443.37 2998.51,3430.65 2998.51,3423.01 2995.96,3410.28 2993.42,3405.19 2990.87,3402.65 2985.78,3400.1 "  stroke="rgb(0,0,0)" stroke-width="5"  /> 
<polyline fill="none" points = "3059.6,3410.28 3062.15,3412.83 3059.6,3415.37 3057.05,3412.83 3057.05,3410.28 3059.6,3405.19 3062.15,3402.65 3069.78,3400.1 3079.96,3400.1 3087.6,3402.65 3090.15,3405.19 3092.69,3410.28 3092.69,3415.37 3090.15,3420.46 3082.51,3425.55 3069.78,3430.65 3064.69,3433.19 3059.6,3438.28 3057.05,3445.92 3057.05,3453.55 "  stroke="rgb(0,0,0)" stroke-width="5"  /> 
<polyline fill="none" points = "3079.96,3400.1 3085.05,3402.65 3087.6,3405.19 3090.15,3410.28 3090.15,3415.37 3087.6,3420.46 3079.96,3425.55 3069.78,3430.65 "  stroke="rgb(0,0,0)" stroke-width="5"  /> 
<polyline fill="none" points = "3057.05,3448.46 3059.6,3445.92 3064.69,3445.92 3077.42,3451.01 3085.05,3451.01 3090.15,3448.46 3092.69,3445.92 "  stroke="rgb(0,0,0)" stroke-width="5"  /> 
<polyline fill="none" points = "3064.69,3445.92 3077.42,3453.55 3087.6,3453.55 3090.15,3451.01 3092.69,3445.92 3092.69,3440.83 "  stroke="rgb(0,0,0)" stroke-width="5"  /> 
<polyline fill="none" points = "3123.24,3400.1 3115.6,3402.65 3110.51,3410.28 3107.96,3423.01 3107.96,3430.65 3110.51,3443.37 3115.6,3451.01 3123.24,3453.55 3128.33,3453.55 3135.96,3451.01 3141.05,3443.37 3143.6,3430.65 3143.6,3423.01 3141.05,3410.28 3135.96,3402.65 3128.33,3400.1 3123.24,3400.1 "  stroke="rgb(0,0,0)" stroke-width="5"  /> 
<polyline fill="none" points = "3123.24,3400.1 3118.15,3402.65 3115.6,3405.19 3113.05,3410.28 3110.51,3423.01 3110.51,3430.65 3113.05,3443.37 3115.6,3448.46 3118.15,3451.01 3123.24,3453.55 "  stroke="rgb(0,0,0)" stroke-width="5"  /> 
<polyline fill="none" points = "3128.33,3453.55 3133.42,3451.01 3135.96,3448.46 3138.51,3443.37 3141.05,3430.65 3141.05,3423.01 3138.51,3410.28 3135.96,3405.19 3133.42,3402.65 3128.33,3400.1 "  stroke="rgb(0,0,0)" stroke-width="5"  /> 
<polyline fill="none" points = "3174.15,3400.1 3166.51,3402.65 3161.42,3410.28 3158.87,3423.01 3158.87,3430.65 3161.42,3443.37 3166.51,3451.01 3174.15,3453.55 3179.24,3453.55 3186.87,3451.01 3191.96,3443.37 3194.51,3430.65 3194.51,3423.01 3191.96,3410.28 3186.87,3402.65 3179.24,3400.1 3174.15,3400.1 "  stroke="rgb(0,0,0)" stroke-width="5"  /> 
<polyline fill="none" points = "3174.15,3400.1 3169.05,3402.65 3166.51,3405.19 3163.96,3410.28 3161.42,3423.01 3161.42,3430.65 3163.96,3443.37 3166.51,3448.46 3169.05,3451.01 3174.15,3453.55 "  stroke="rgb(0,0,0)" stroke-width="5"  /> 
<polyline fill="none" points = "3179.24,3453.55 3184.33,3451.01 3186.87,3448.46 3189.42,3443.37 3191.96,3430.65 3191.96,3423.01 3189.42,3410.28 3186.87,3405.19 3184.33,3402.65 3179.24,3400.1 "  stroke="rgb(0,0,0)" stroke-width="5"  /> 
<polyline fill="none" points = "3214.87,3448.46 3212.33,3451.01 3214.87,3453.55 3217.42,3451.01 3214.87,3448.46 "  stroke="rgb(0,0,0)" stroke-width="5"  /> 
<polyline fill="none" points = "3250.51,3400.1 3242.87,3402.65 3237.78,3410.28 3235.24,3423.01 3235.24,3430.65 3237.78,3443.37 3242.87,3451.01 3250.51,3453.55 3255.6,3453.55 3263.24,3451.01 3268.33,3443.37 3270.87,3430.65 3270.87,3423.01 3268.33,3410.28 3263.24,3402.65 3255.6,3400.1 3250.51,3400.1 "  stroke="rgb(0,0,0)" stroke-width="5"  /> 
<polyline fill="none" points = "3250.51,3400.1 3245.42,3402.65 3242.87,3405.19 3240.33,3410.28 3237.78,3423.01 3237.78,3430.65 3240.33,3443.37 3242.87,3448.46 3245.42,3451.01 3250.51,3453.55 "  stroke="rgb(0,0,0)" stroke-width="5"  /> 
<polyline fill="none" points = "3255.6,3453.55 3260.69,3451.01 3263.24,3448.46 3265.78,3443.37 3268.33,3430.65 3268.33,3423.01 3265.78,3410.28 3263.24,3405.19 3260.69,3402.65 3255.6,3400.1 "  stroke="rgb(0,0,0)" stroke-width="5"  /> 
<polyline fill="none" points = "3301.42,3400.1 3293.78,3402.65 3288.69,3410.28 3286.15,3423.01 3286.15,3430.65 3288.69,3443.37 3293.78,3451.01 3301.42,3453.55 3306.51,3453.55 3314.15,3451.01 3319.24,3443.37 3321.78,3430.65 3321.78,3423.01 3319.24,3410.28 3314.15,3402.65 3306.51,3400.1 3301.42,3400.1 "  stroke="rgb(0,0,0)" stroke-width="5"  /> 
<polyline fill="none" points = "3301.42,3400.1 3296.33,3402.65 3293.78,3405.19 3291.24,3410.28 3288.69,3423.01 3288.69,3430.65 3291.24,3443.37 3293.78,3448.46 3296.33,3451.01 3301.42,3453.55 "  stroke="rgb(0,0,0)" stroke-width="5"  /> 
<polyline fill="none" points = "3306.51,3453.55 3311.6,3451.01 3314.15,3448.46 3316.69,3443.37 3319.24,3430.65 3319.24,3423.01 3316.69,3410.28 3314.15,3405.19 3311.6,3402.65 3306.51,3400.1 "  stroke="rgb(0,0,0)" stroke-width="5"  /> 
<polyline fill="none" points = "3398.15,3389.92 3393.05,3395.01 3387.96,3402.65 3382.87,3412.83 3380.33,3425.55 3380.33,3435.74 3382.87,3448.46 3387.96,3458.65 3393.05,3466.28 3398.15,3471.37 "  stroke="rgb(0,0,0)" stroke-width="5"  /> 
<polyline fill="none" points = "3393.05,3395.01 3387.96,3405.19 3385.42,3412.83 3382.87,3425.55 3382.87,3435.74 3385.42,3448.46 3387.96,3456.1 3393.05,3466.28 "  stroke="rgb(0,0,0)" stroke-width="5"  /> 
<polyline fill="none" points = "3418.51,3417.92 3418.51,3453.55 "  stroke="rgb(0,0,0)" stroke-width="5"  /> 
<polyline fill="none" points = "3421.05,3417.92 3421.05,3453.55 "  stroke="rgb(0,0,0)" stroke-width="5"  /> 
<polyline fill="none" points = "3421.05,3425.55 3426.15,3420.46 3433.78,3417.92 3438.87,3417.92 3446.51,3420.46 3449.05,3425.55 3449.05,3453.55 "  stroke="rgb(0,0,0)" stroke-width="5"  /> 
<polyline fill="none" points = "3438.87,3417.92 3443.96,3420.46 3446.51,3425.55 3446.51,3453.55 "  stroke="rgb(0,0,0)" stroke-width="5"  /> 
<polyline fill="none" points = "3410.87,3417.92 3421.05,3417.92 "  stroke="rgb(0,0,0)" stroke-width="5"  /> 
<polyline fill="none" points = "3410.87,3453.55 3428.69,3453.55 "  stroke="rgb(0,0,0)" stroke-width="5"  /> 
<polyline fill="none" points = "3438.87,3453.55 3456.69,3453.55 "  stroke="rgb(0,0,0)" stroke-width="5"  /> 
<polyline fill="none" points = "3474.51,3417.92 3474.51,3453.55 "  stroke="rgb(0,0,0)" stroke-width="5"  /> 
<polyline fill="none" points = "3477.05,3417.92 3477.05,3453.55 "  stroke="rgb(0,0,0)" stroke-width="5"  /> 
<polyline fill="none" points = "3477.05,3425.55 3482.15,3420.46 3489.78,3417.92 3494.87,3417.92 3502.51,3420.46 3505.05,3425.55 3505.05,3453.55 "  stroke="rgb(0,0,0)" stroke-width="5"  /> 
<polyline fill="none" points = "3494.87,3417.92 3499.96,3420.46 3502.51,3425.55 3502.51,3453.55 "  stroke="rgb(0,0,0)" stroke-width="5"  /> 
<polyline fill="none" points = "3505.05,3425.55 3510.15,3420.46 3517.78,3417.92 3522.87,3417.92 3530.51,3420.46 3533.05,3425.55 3533.05,3453.55 "  stroke="rgb(0,0,0)" stroke-width="5"  /> 
<polyline fill="none" points = "3522.87,3417.92 3527.96,3420.46 3530.51,3425.55 3530.51,3453.55 "  stroke="rgb(0,0,0)" stroke-width="5"  /> 
<polyline fill="none" points = "3466.87,3417.92 3477.05,3417.92 "  stroke="rgb(0,0,0)" stroke-width="5"  /> 
<polyline fill="none" points = "3466.87,3453.55 3484.69,3453.55 "  stroke="rgb(0,0,0)" stroke-width="5"  /> 
<polyline fill="none" points = "3494.87,3453.55 3512.69,3453.55 "  stroke="rgb(0,0,0)" stroke-width="5"  /> 
<polyline fill="none" points = "3522.87,3453.55 3540.69,3453.55 "  stroke="rgb(0,0,0)" stroke-width="5"  /> 
<polyline fill="none" points = "3553.42,3389.92 3558.51,3395.01 3563.6,3402.65 3568.69,3412.83 3571.24,3425.55 3571.24,3435.74 3568.69,3448.46 3563.6,3458.65 3558.51,3466.28 3553.42,3471.37 "  stroke="rgb(0,0,0)" stroke-width="5"  /> 
<polyline fill="none" points = "3558.51,3395.01 3563.6,3405.19 3566.15,3412.83 3568.69,3425.55 3568.69,3435.74 3566.15,3448.46 3563.6,3456.1 3558.51,3466.28 "  stroke="rgb(0,0,0)" stroke-width="5"  /> 
<polyline fill="none" points = "2340,2200.79 2340,2221.79 "  stroke="rgb(0,0,255)" stroke-width="21"  /> 
<polyline fill="none" points = "2340,2211.29 2340,3388.65 2298,3409.65 2382,3451.65 2340,3472.65 2340,4650 "  stroke="rgb(0,0,0)" stroke-width="5"  /> 
<polyline fill="none" points = "2415.6,4650 4230,4650 "  stroke="rgb(0,0,255)" stroke-width="5" stroke-dasharray="20 5"  /> 
<polyline fill="none" points = "2340,4639.5 2340,4660.5 "  stroke="rgb(0,0,255)" stroke-width="21"  /> 
<polyline fill="none" points = "462.727,4829.45 462.727,4882.91 "  stroke="rgb(0,0,0)" stroke-width="5"  /> 
<polyline fill="none" points = "465.273,4829.45 465.273,4882.91 "  stroke="rgb(0,0,0)" stroke-width="5"  /> 
<polyline fill="none" points = "455.091,4829.45 485.636,4829.45 493.273,4832 495.818,4834.55 498.364,4839.64 498.364,4847.27 495.818,4852.36 493.273,4854.91 485.636,4857.45 465.273,4857.45 "  stroke="rgb(0,0,0)" stroke-width="5"  /> 
<polyline fill="none" points = "485.636,4829.45 490.727,4832 493.273,4834.55 495.818,4839.64 495.818,4847.27 493.273,4852.36 490.727,4854.91 485.636,4857.45 "  stroke="rgb(0,0,0)" stroke-width="5"  /> 
<polyline fill="none" points = "455.091,4882.91 472.909,4882.91 "  stroke="rgb(0,0,0)" stroke-width="5"  /> 
<polyline fill="none" points = "518.727,4852.36 518.727,4854.91 516.182,4854.91 516.182,4852.36 518.727,4849.82 523.818,4847.27 534,4847.27 539.091,4849.82 541.636,4852.36 544.182,4857.45 544.182,4875.27 546.727,4880.36 549.273,4882.91 "  stroke="rgb(0,0,0)" stroke-width="5"  /> 
<polyline fill="none" points = "541.636,4852.36 541.636,4875.27 544.182,4880.36 549.273,4882.91 551.818,4882.91 "  stroke="rgb(0,0,0)" stroke-width="5"  /> 
<polyline fill="none" points = "541.636,4857.45 539.091,4860 523.818,4862.55 516.182,4865.09 513.636,4870.18 513.636,4875.27 516.182,4880.36 523.818,4882.91 531.455,4882.91 536.545,4880.36 541.636,4875.27 "  stroke="rgb(0,0,0)" stroke-width="5"  /> 
<polyline fill="none" points = "523.818,4862.55 518.727,4865.09 516.182,4870.18 516.182,4875.27 518.727,4880.36 523.818,4882.91 "  stroke="rgb(0,0,0)" stroke-width="5"  /> 
<polyline fill="none" points = "569.636,4847.27 569.636,4882.91 "  stroke="rgb(0,0,0)" stroke-width="5"  /> 
<polyline fill="none" points = "572.182,4847.27 572.182,4882.91 "  stroke="rgb(0,0,0)" stroke-width="5"  /> 
<polyline fill="none" points = "572.182,4862.55 574.727,4854.91 579.818,4849.82 584.909,4847.27 592.545,4847.27 595.091,4849.82 595.091,4852.36 592.545,4854.91 590,4852.36 592.545,4849.82 "  stroke="rgb(0,0,0)" stroke-width="5"  /> 
<polyline fill="none" points = "562,4847.27 572.182,4847.27 "  stroke="rgb(0,0,0)" stroke-width="5"  /> 
<polyline fill="none" points = "562,4882.91 579.818,4882.91 "  stroke="rgb(0,0,0)" stroke-width="5"  /> 
<polyline fill="none" points = "612.909,4852.36 612.909,4854.91 610.364,4854.91 610.364,4852.36 612.909,4849.82 618,4847.27 628.182,4847.27 633.273,4849.82 635.818,4852.36 638.364,4857.45 638.364,4875.27 640.909,4880.36 643.455,4882.91 "  stroke="rgb(0,0,0)" stroke-width="5"  /> 
<polyline fill="none" points = "635.818,4852.36 635.818,4875.27 638.364,4880.36 643.455,4882.91 646,4882.91 "  stroke="rgb(0,0,0)" stroke-width="5"  /> 
<polyline fill="none" points = "635.818,4857.45 633.273,4860 618,4862.55 610.364,4865.09 607.818,4870.18 607.818,4875.27 610.364,4880.36 618,4882.91 625.636,4882.91 630.727,4880.36 635.818,4875.27 "  stroke="rgb(0,0,0)" stroke-width="5"  /> 
<polyline fill="none" points = "618,4862.55 612.909,4865.09 610.364,4870.18 610.364,4875.27 612.909,4880.36 618,4882.91 "  stroke="rgb(0,0,0)" stroke-width="5"  /> 
<polyline fill="none" points = "663.818,4847.27 663.818,4882.91 "  stroke="rgb(0,0,0)" stroke-width="5"  /> 
<polyline fill="none" points = "666.364,4847.27 666.364,4882.91 "  stroke="rgb(0,0,0)" stroke-width="5"  /> 
<polyline fill="none" points = "666.364,4854.91 671.455,4849.82 679.091,4847.27 684.182,4847.27 691.818,4849.82 694.364,4854.91 694.364,4882.91 "  stroke="rgb(0,0,0)" stroke-width="5"  /> 
<polyline fill="none" points = "684.182,4847.27 689.273,4849.82 691.818,4854.91 691.818,4882.91 "  stroke="rgb(0,0,0)" stroke-width="5"  /> 
<polyline fill="none" points = "694.364,4854.91 699.455,4849.82 707.091,4847.27 712.182,4847.27 719.818,4849.82 722.364,4854.91 722.364,4882.91 "  stroke="rgb(0,0,0)" stroke-width="5"  /> 
<polyline fill="none" points = "712.182,4847.27 717.273,4849.82 719.818,4854.91 719.818,4882.91 "  stroke="rgb(0,0,0)" stroke-width="5"  /> 
<polyline fill="none" points = "656.182,4847.27 666.364,4847.27 "  stroke="rgb(0,0,0)" stroke-width="5"  /> 
<polyline fill="none" points = "656.182,4882.91 674,4882.91 "  stroke="rgb(0,0,0)" stroke-width="5"  /> 
<polyline fill="none" points = "684.182,4882.91 702,4882.91 "  stroke="rgb(0,0,0)" stroke-width="5"  /> 
<polyline fill="none" points = "712.182,4882.91 730,4882.91 "  stroke="rgb(0,0,0)" stroke-width="5"  /> 
<polyline fill="none" points = "745.273,4862.55 775.818,4862.55 775.818,4857.45 773.273,4852.36 770.727,4849.82 765.636,4847.27 758,4847.27 750.364,4849.82 745.273,4854.91 742.727,4862.55 742.727,4867.64 745.273,4875.27 750.364,4880.36 758,4882.91 763.091,4882.91 770.727,4880.36 775.818,4875.27 "  stroke="rgb(0,0,0)" stroke-width="5"  /> 
<polyline fill="none" points = "773.273,4862.55 773.273,4854.91 770.727,4849.82 "  stroke="rgb(0,0,0)" stroke-width="5"  /> 
<polyline fill="none" points = "758,4847.27 752.909,4849.82 747.818,4854.91 745.273,4862.55 745.273,4867.64 747.818,4875.27 752.909,4880.36 758,4882.91 "  stroke="rgb(0,0,0)" stroke-width="5"  /> 
<polyline fill="none" points = "796.182,4829.45 796.182,4872.73 798.727,4880.36 803.818,4882.91 808.909,4882.91 814,4880.36 816.545,4875.27 "  stroke="rgb(0,0,0)" stroke-width="5"  /> 
<polyline fill="none" points = "798.727,4829.45 798.727,4872.73 801.273,4880.36 803.818,4882.91 "  stroke="rgb(0,0,0)" stroke-width="5"  /> 
<polyline fill="none" points = "788.545,4847.27 808.909,4847.27 "  stroke="rgb(0,0,0)" stroke-width="5"  /> 
<polyline fill="none" points = "831.818,4862.55 862.364,4862.55 862.364,4857.45 859.818,4852.36 857.273,4849.82 852.182,4847.27 844.545,4847.27 836.909,4849.82 831.818,4854.91 829.273,4862.55 829.273,4867.64 831.818,4875.27 836.909,4880.36 844.545,4882.91 849.636,4882.91 857.273,4880.36 862.364,4875.27 "  stroke="rgb(0,0,0)" stroke-width="5"  /> 
<polyline fill="none" points = "859.818,4862.55 859.818,4854.91 857.273,4849.82 "  stroke="rgb(0,0,0)" stroke-width="5"  /> 
<polyline fill="none" points = "844.545,4847.27 839.455,4849.82 834.364,4854.91 831.818,4862.55 831.818,4867.64 834.364,4875.27 839.455,4880.36 844.545,4882.91 "  stroke="rgb(0,0,0)" stroke-width="5"  /> 
<polyline fill="none" points = "882.727,4847.27 882.727,4882.91 "  stroke="rgb(0,0,0)" stroke-width="5"  /> 
<polyline fill="none" points = "885.273,4847.27 885.273,4882.91 "  stroke="rgb(0,0,0)" stroke-width="5"  /> 
<polyline fill="none" points = "885.273,4862.55 887.818,4854.91 892.909,4849.82 898,4847.27 905.636,4847.27 908.182,4849.82 908.182,4852.36 905.636,4854.91 903.091,4852.36 905.636,4849.82 "  stroke="rgb(0,0,0)" stroke-width="5"  /> 
<polyline fill="none" points = "875.091,4847.27 885.273,4847.27 "  stroke="rgb(0,0,0)" stroke-width="5"  /> 
<polyline fill="none" points = "875.091,4882.91 892.909,4882.91 "  stroke="rgb(0,0,0)" stroke-width="5"  /> 
<polyline fill="none" points = "966.727,4829.45 966.727,4882.91 "  stroke="rgb(0,0,0)" stroke-width="5"  /> 
<polyline fill="none" points = "969.273,4829.45 969.273,4882.91 "  stroke="rgb(0,0,0)" stroke-width="5"  /> 
<polyline fill="none" points = "984.545,4844.73 984.545,4865.09 "  stroke="rgb(0,0,0)" stroke-width="5"  /> 
<polyline fill="none" points = "959.091,4829.45 999.818,4829.45 999.818,4844.73 997.273,4829.45 "  stroke="rgb(0,0,0)" stroke-width="5"  /> 
<polyline fill="none" points = "969.273,4854.91 984.545,4854.91 "  stroke="rgb(0,0,0)" stroke-width="5"  /> 
<polyline fill="none" points = "959.091,4882.91 976.909,4882.91 "  stroke="rgb(0,0,0)" stroke-width="5"  /> 
<polyline fill="none" points = "1017.64,4829.45 1015.09,4832 1017.64,4834.55 1020.18,4832 1017.64,4829.45 "  stroke="rgb(0,0,0)" stroke-width="5"  /> 
<polyline fill="none" points = "1017.64,4847.27 1017.64,4882.91 "  stroke="rgb(0,0,0)" stroke-width="5"  /> 
<polyline fill="none" points = "1020.18,4847.27 1020.18,4882.91 "  stroke="rgb(0,0,0)" stroke-width="5"  /> 
<polyline fill="none" points = "1010,4847.27 1020.18,4847.27 "  stroke="rgb(0,0,0)" stroke-width="5"  /> 
<polyline fill="none" points = "1010,4882.91 1027.82,4882.91 "  stroke="rgb(0,0,0)" stroke-width="5"  /> 
<polyline fill="none" points = "1045.64,4829.45 1045.64,4882.91 "  stroke="rgb(0,0,0)" stroke-width="5"  /> 
<polyline fill="none" points = "1048.18,4829.45 1048.18,4882.91 "  stroke="rgb(0,0,0)" stroke-width="5"  /> 
<polyline fill="none" points = "1038,4829.45 1048.18,4829.45 "  stroke="rgb(0,0,0)" stroke-width="5"  /> 
<polyline fill="none" points = "1038,4882.91 1055.82,4882.91 "  stroke="rgb(0,0,0)" stroke-width="5"  /> 
<polyline fill="none" points = "1071.09,4862.55 1101.64,4862.55 1101.64,4857.45 1099.09,4852.36 1096.55,4849.82 1091.45,4847.27 1083.82,4847.27 1076.18,4849.82 1071.09,4854.91 1068.55,4862.55 1068.55,4867.64 1071.09,4875.27 1076.18,4880.36 1083.82,4882.91 1088.91,4882.91 1096.55,4880.36 1101.64,4875.27 "  stroke="rgb(0,0,0)" stroke-width="5"  /> 
<polyline fill="none" points = "1099.09,4862.55 1099.09,4854.91 1096.55,4849.82 "  stroke="rgb(0,0,0)" stroke-width="5"  /> 
<polyline fill="none" points = "1083.82,4847.27 1078.73,4849.82 1073.64,4854.91 1071.09,4862.55 1071.09,4867.64 1073.64,4875.27 1078.73,4880.36 1083.82,4882.91 "  stroke="rgb(0,0,0)" stroke-width="5"  /> 
<polyline fill="none" points = "1122,4847.27 1119.45,4849.82 1122,4852.36 1124.55,4849.82 1122,4847.27 "  stroke="rgb(0,0,0)" stroke-width="5"  /> 
<polyline fill="none" points = "1122,4877.82 1119.45,4880.36 1122,4882.91 1124.55,4880.36 1122,4877.82 "  stroke="rgb(0,0,0)" stroke-width="5"  /> 
<polyline fill="none" points = "1213.64,4829.45 1213.64,4882.91 "  stroke="rgb(0,0,0)" stroke-width="5"  /> 
<polyline fill="none" points = "1216.18,4829.45 1216.18,4882.91 "  stroke="rgb(0,0,0)" stroke-width="5"  /> 
<polyline fill="none" points = "1213.64,4854.91 1208.55,4849.82 1203.45,4847.27 1198.36,4847.27 1190.73,4849.82 1185.64,4854.91 1183.09,4862.55 1183.09,4867.64 1185.64,4875.27 1190.73,4880.36 1198.36,4882.91 1203.45,4882.91 1208.55,4880.36 1213.64,4875.27 "  stroke="rgb(0,0,0)" stroke-width="5"  /> 
<polyline fill="none" points = "1198.36,4847.27 1193.27,4849.82 1188.18,4854.91 1185.64,4862.55 1185.64,4867.64 1188.18,4875.27 1193.27,4880.36 1198.36,4882.91 "  stroke="rgb(0,0,0)" stroke-width="5"  /> 
<polyline fill="none" points = "1206,4829.45 1216.18,4829.45 "  stroke="rgb(0,0,0)" stroke-width="5"  /> 
<polyline fill="none" points = "1213.64,4882.91 1223.82,4882.91 "  stroke="rgb(0,0,0)" stroke-width="5"  /> 
<polyline fill="none" points = "1251.82,4847.27 1244.18,4849.82 1239.09,4854.91 1236.55,4862.55 1236.55,4867.64 1239.09,4875.27 1244.18,4880.36 1251.82,4882.91 1256.91,4882.91 1264.55,4880.36 1269.64,4875.27 1272.18,4867.64 1272.18,4862.55 1269.64,4854.91 1264.55,4849.82 1256.91,4847.27 1251.82,4847.27 "  stroke="rgb(0,0,0)" stroke-width="5"  /> 
<polyline fill="none" points = "1251.82,4847.27 1246.73,4849.82 1241.64,4854.91 1239.09,4862.55 1239.09,4867.64 1241.64,4875.27 1246.73,4880.36 1251.82,4882.91 "  stroke="rgb(0,0,0)" stroke-width="5"  /> 
<polyline fill="none" points = "1256.91,4882.91 1262,4880.36 1267.09,4875.27 1269.64,4867.64 1269.64,4862.55 1267.09,4854.91 1262,4849.82 1256.91,4847.27 "  stroke="rgb(0,0,0)" stroke-width="5"  /> 
<polyline fill="none" points = "1292.55,4829.45 1292.55,4872.73 1295.09,4880.36 1300.18,4882.91 1305.27,4882.91 1310.36,4880.36 1312.91,4875.27 "  stroke="rgb(0,0,0)" stroke-width="5"  /> 
<polyline fill="none" points = "1295.09,4829.45 1295.09,4872.73 1297.64,4880.36 1300.18,4882.91 "  stroke="rgb(0,0,0)" stroke-width="5"  /> 
<polyline fill="none" points = "1284.91,4847.27 1305.27,4847.27 "  stroke="rgb(0,0,0)" stroke-width="5"  /> 
<polyline fill="none" points = "1330.73,4852.36 1330.73,4854.91 1328.18,4854.91 1328.18,4852.36 1330.73,4849.82 1335.82,4847.27 1346,4847.27 1351.09,4849.82 1353.64,4852.36 1356.18,4857.45 1356.18,4875.27 1358.73,4880.36 1361.27,4882.91 "  stroke="rgb(0,0,0)" stroke-width="5"  /> 
<polyline fill="none" points = "1353.64,4852.36 1353.64,4875.27 1356.18,4880.36 1361.27,4882.91 1363.82,4882.91 "  stroke="rgb(0,0,0)" stroke-width="5"  /> 
<polyline fill="none" points = "1353.64,4857.45 1351.09,4860 1335.82,4862.55 1328.18,4865.09 1325.64,4870.18 1325.64,4875.27 1328.18,4880.36 1335.82,4882.91 1343.45,4882.91 1348.55,4880.36 1353.64,4875.27 "  stroke="rgb(0,0,0)" stroke-width="5"  /> 
<polyline fill="none" points = "1335.82,4862.55 1330.73,4865.09 1328.18,4870.18 1328.18,4875.27 1330.73,4880.36 1335.82,4882.91 "  stroke="rgb(0,0,0)" stroke-width="5"  /> 
<polyline fill="none" points = "1381.64,4847.27 1381.64,4882.91 "  stroke="rgb(0,0,0)" stroke-width="5"  /> 
<polyline fill="none" points = "1384.18,4847.27 1384.18,4882.91 "  stroke="rgb(0,0,0)" stroke-width="5"  /> 
<polyline fill="none" points = "1384.18,4862.55 1386.73,4854.91 1391.82,4849.82 1396.91,4847.27 1404.55,4847.27 1407.09,4849.82 1407.09,4852.36 1404.55,4854.91 1402,4852.36 1404.55,4849.82 "  stroke="rgb(0,0,0)" stroke-width="5"  /> 
<polyline fill="none" points = "1374,4847.27 1384.18,4847.27 "  stroke="rgb(0,0,0)" stroke-width="5"  /> 
<polyline fill="none" points = "1374,4882.91 1391.82,4882.91 "  stroke="rgb(0,0,0)" stroke-width="5"  /> 
<polyline fill="none" points = "1424.91,4847.27 1424.91,4882.91 "  stroke="rgb(0,0,0)" stroke-width="5"  /> 
<polyline fill="none" points = "1427.45,4847.27 1427.45,4882.91 "  stroke="rgb(0,0,0)" stroke-width="5"  /> 
<polyline fill="none" points = "1427.45,4862.55 1430,4854.91 1435.09,4849.82 1440.18,4847.27 1447.82,4847.27 1450.36,4849.82 1450.36,4852.36 1447.82,4854.91 1445.27,4852.36 1447.82,4849.82 "  stroke="rgb(0,0,0)" stroke-width="5"  /> 
<polyline fill="none" points = "1417.27,4847.27 1427.45,4847.27 "  stroke="rgb(0,0,0)" stroke-width="5"  /> 
<polyline fill="none" points = "1417.27,4882.91 1435.09,4882.91 "  stroke="rgb(0,0,0)" stroke-width="5"  /> 
<polyline fill="none" points = "1468.18,4852.36 1468.18,4854.91 1465.64,4854.91 1465.64,4852.36 1468.18,4849.82 1473.27,4847.27 1483.45,4847.27 1488.55,4849.82 1491.09,4852.36 1493.64,4857.45 1493.64,4875.27 1496.18,4880.36 1498.73,4882.91 "  stroke="rgb(0,0,0)" stroke-width="5"  /> 
<polyline fill="none" points = "1491.09,4852.36 1491.09,4875.27 1493.64,4880.36 1498.73,4882.91 1501.27,4882.91 "  stroke="rgb(0,0,0)" stroke-width="5"  /> 
<polyline fill="none" points = "1491.09,4857.45 1488.55,4860 1473.27,4862.55 1465.64,4865.09 1463.09,4870.18 1463.09,4875.27 1465.64,4880.36 1473.27,4882.91 1480.91,4882.91 1486,4880.36 1491.09,4875.27 "  stroke="rgb(0,0,0)" stroke-width="5"  /> 
<polyline fill="none" points = "1473.27,4862.55 1468.18,4865.09 1465.64,4870.18 1465.64,4875.27 1468.18,4880.36 1473.27,4882.91 "  stroke="rgb(0,0,0)" stroke-width="5"  /> 
<polyline fill="none" points = "1516.55,4847.27 1531.82,4882.91 "  stroke="rgb(0,0,0)" stroke-width="5"  /> 
<polyline fill="none" points = "1519.09,4847.27 1531.82,4877.82 "  stroke="rgb(0,0,0)" stroke-width="5"  /> 
<polyline fill="none" points = "1547.09,4847.27 1531.82,4882.91 1526.73,4893.09 1521.64,4898.18 1516.55,4900.73 1514,4900.73 1511.45,4898.18 1514,4895.64 1516.55,4898.18 "  stroke="rgb(0,0,0)" stroke-width="5"  /> 
<polyline fill="none" points = "1511.45,4847.27 1526.73,4847.27 "  stroke="rgb(0,0,0)" stroke-width="5"  /> 
<polyline fill="none" points = "1536.91,4847.27 1552.18,4847.27 "  stroke="rgb(0,0,0)" stroke-width="5"  /> 
<polyline fill="none" points = "1570,4839.64 1575.09,4837.09 1582.73,4829.45 1582.73,4882.91 "  stroke="rgb(0,0,0)" stroke-width="5"  /> 
<polyline fill="none" points = "1580.18,4832 1580.18,4882.91 "  stroke="rgb(0,0,0)" stroke-width="5"  /> 
<polyline fill="none" points = "1570,4882.91 1592.91,4882.91 "  stroke="rgb(0,0,0)" stroke-width="5"  /> 
<polyline fill="none" points = "1643.82,4829.45 1643.82,4882.91 "  stroke="rgb(0,0,0)" stroke-width="5"  /> 
<polyline fill="none" points = "1646.36,4829.45 1646.36,4882.91 "  stroke="rgb(0,0,0)" stroke-width="5"  /> 
<polyline fill="none" points = "1643.82,4854.91 1638.73,4849.82 1633.64,4847.27 1628.55,4847.27 1620.91,4849.82 1615.82,4854.91 1613.27,4862.55 1613.27,4867.64 1615.82,4875.27 1620.91,4880.36 1628.55,4882.91 1633.64,4882.91 1638.73,4880.36 1643.82,4875.27 "  stroke="rgb(0,0,0)" stroke-width="5"  /> 
<polyline fill="none" points = "1628.55,4847.27 1623.45,4849.82 1618.36,4854.91 1615.82,4862.55 1615.82,4867.64 1618.36,4875.27 1623.45,4880.36 1628.55,4882.91 "  stroke="rgb(0,0,0)" stroke-width="5"  /> 
<polyline fill="none" points = "1636.18,4829.45 1646.36,4829.45 "  stroke="rgb(0,0,0)" stroke-width="5"  /> 
<polyline fill="none" points = "1643.82,4882.91 1654,4882.91 "  stroke="rgb(0,0,0)" stroke-width="5"  /> 
<polyline fill="none" points = "1671.82,4829.45 1669.27,4832 1671.82,4834.55 1674.36,4832 1671.82,4829.45 "  stroke="rgb(0,0,0)" stroke-width="5"  /> 
<polyline fill="none" points = "1671.82,4847.27 1671.82,4882.91 "  stroke="rgb(0,0,0)" stroke-width="5"  /> 
<polyline fill="none" points = "1674.36,4847.27 1674.36,4882.91 "  stroke="rgb(0,0,0)" stroke-width="5"  /> 
<polyline fill="none" points = "1664.18,4847.27 1674.36,4847.27 "  stroke="rgb(0,0,0)" stroke-width="5"  /> 
<polyline fill="none" points = "1664.18,4882.91 1682,4882.91 "  stroke="rgb(0,0,0)" stroke-width="5"  /> 
<polyline fill="none" points = "1720.18,4852.36 1722.73,4847.27 1722.73,4857.45 1720.18,4852.36 1717.64,4849.82 1712.55,4847.27 1702.36,4847.27 1697.27,4849.82 1694.73,4852.36 1694.73,4857.45 1697.27,4860 1702.36,4862.55 1715.09,4867.64 1720.18,4870.18 1722.73,4872.73 "  stroke="rgb(0,0,0)" stroke-width="5"  /> 
<polyline fill="none" points = "1694.73,4854.91 1697.27,4857.45 1702.36,4860 1715.09,4865.09 1720.18,4867.64 1722.73,4870.18 1722.73,4877.82 1720.18,4880.36 1715.09,4882.91 1704.91,4882.91 1699.82,4880.36 1697.27,4877.82 1694.73,4872.73 1694.73,4882.91 1697.27,4877.82 "  stroke="rgb(0,0,0)" stroke-width="5"  /> 
<polyline fill="none" points = "1743.09,4829.45 1743.09,4882.91 "  stroke="rgb(0,0,0)" stroke-width="5"  /> 
<polyline fill="none" points = "1745.64,4829.45 1745.64,4882.91 "  stroke="rgb(0,0,0)" stroke-width="5"  /> 
<polyline fill="none" points = "1771.09,4847.27 1745.64,4872.73 "  stroke="rgb(0,0,0)" stroke-width="5"  /> 
<polyline fill="none" points = "1758.36,4862.55 1773.64,4882.91 "  stroke="rgb(0,0,0)" stroke-width="5"  /> 
<polyline fill="none" points = "1755.82,4862.55 1771.09,4882.91 "  stroke="rgb(0,0,0)" stroke-width="5"  /> 
<polyline fill="none" points = "1735.45,4829.45 1745.64,4829.45 "  stroke="rgb(0,0,0)" stroke-width="5"  /> 
<polyline fill="none" points = "1763.45,4847.27 1778.73,4847.27 "  stroke="rgb(0,0,0)" stroke-width="5"  /> 
<polyline fill="none" points = "1735.45,4882.91 1753.27,4882.91 "  stroke="rgb(0,0,0)" stroke-width="5"  /> 
<polyline fill="none" points = "1763.45,4882.91 1778.73,4882.91 "  stroke="rgb(0,0,0)" stroke-width="5"  /> 
<polyline fill="none" points = "1794,4839.64 1796.55,4842.18 1794,4844.73 1791.45,4842.18 1791.45,4839.64 1794,4834.55 1796.55,4832 1804.18,4829.45 1814.36,4829.45 1822,4832 1824.55,4834.55 1827.09,4839.64 1827.09,4844.73 1824.55,4849.82 1816.91,4854.91 1804.18,4860 1799.09,4862.55 1794,4867.64 1791.45,4875.27 1791.45,4882.91 "  stroke="rgb(0,0,0)" stroke-width="5"  /> 
<polyline fill="none" points = "1814.36,4829.45 1819.45,4832 1822,4834.55 1824.55,4839.64 1824.55,4844.73 1822,4849.82 1814.36,4854.91 1804.18,4860 "  stroke="rgb(0,0,0)" stroke-width="5"  /> 
<polyline fill="none" points = "1791.45,4877.82 1794,4875.27 1799.09,4875.27 1811.82,4880.36 1819.45,4880.36 1824.55,4877.82 1827.09,4875.27 "  stroke="rgb(0,0,0)" stroke-width="5"  /> 
<polyline fill="none" points = "1799.09,4875.27 1811.82,4882.91 1822,4882.91 1824.55,4880.36 1827.09,4875.27 1827.09,4870.18 "  stroke="rgb(0,0,0)" stroke-width="5"  /> 
<polyline fill="none" points = "1847.45,4877.82 1844.91,4880.36 1847.45,4882.91 1850,4880.36 1847.45,4877.82 "  stroke="rgb(0,0,0)" stroke-width="5"  /> 
<polyline fill="none" points = "1870.36,4847.27 1898.36,4882.91 "  stroke="rgb(0,0,0)" stroke-width="5"  /> 
<polyline fill="none" points = "1872.91,4847.27 1900.91,4882.91 "  stroke="rgb(0,0,0)" stroke-width="5"  /> 
<polyline fill="none" points = "1900.91,4847.27 1870.36,4882.91 "  stroke="rgb(0,0,0)" stroke-width="5"  /> 
<polyline fill="none" points = "1865.27,4847.27 1880.55,4847.27 "  stroke="rgb(0,0,0)" stroke-width="5"  /> 
<polyline fill="none" points = "1890.73,4847.27 1906,4847.27 "  stroke="rgb(0,0,0)" stroke-width="5"  /> 
<polyline fill="none" points = "1865.27,4882.91 1880.55,4882.91 "  stroke="rgb(0,0,0)" stroke-width="5"  /> 
<polyline fill="none" points = "1890.73,4882.91 1906,4882.91 "  stroke="rgb(0,0,0)" stroke-width="5"  /> 
<polyline fill="none" points = "1923.82,4847.27 1923.82,4882.91 "  stroke="rgb(0,0,0)" stroke-width="5"  /> 
<polyline fill="none" points = "1926.36,4847.27 1926.36,4882.91 "  stroke="rgb(0,0,0)" stroke-width="5"  /> 
<polyline fill="none" points = "1926.36,4854.91 1931.45,4849.82 1939.09,4847.27 1944.18,4847.27 1951.82,4849.82 1954.36,4854.91 1954.36,4882.91 "  stroke="rgb(0,0,0)" stroke-width="5"  /> 
<polyline fill="none" points = "1944.18,4847.27 1949.27,4849.82 1951.82,4854.91 1951.82,4882.91 "  stroke="rgb(0,0,0)" stroke-width="5"  /> 
<polyline fill="none" points = "1954.36,4854.91 1959.45,4849.82 1967.09,4847.27 1972.18,4847.27 1979.82,4849.82 1982.36,4854.91 1982.36,4882.91 "  stroke="rgb(0,0,0)" stroke-width="5"  /> 
<polyline fill="none" points = "1972.18,4847.27 1977.27,4849.82 1979.82,4854.91 1979.82,4882.91 "  stroke="rgb(0,0,0)" stroke-width="5"  /> 
<polyline fill="none" points = "1916.18,4847.27 1926.36,4847.27 "  stroke="rgb(0,0,0)" stroke-width="5"  /> 
<polyline fill="none" points = "1916.18,4882.91 1934,4882.91 "  stroke="rgb(0,0,0)" stroke-width="5"  /> 
<polyline fill="none" points = "1944.18,4882.91 1962,4882.91 "  stroke="rgb(0,0,0)" stroke-width="5"  /> 
<polyline fill="none" points = "1972.18,4882.91 1990,4882.91 "  stroke="rgb(0,0,0)" stroke-width="5"  /> 
<polyline fill="none" points = "2007.82,4829.45 2007.82,4882.91 "  stroke="rgb(0,0,0)" stroke-width="5"  /> 
<polyline fill="none" points = "2010.36,4829.45 2010.36,4882.91 "  stroke="rgb(0,0,0)" stroke-width="5"  /> 
<polyline fill="none" points = "2000.18,4829.45 2010.36,4829.45 "  stroke="rgb(0,0,0)" stroke-width="5"  /> 
<polyline fill="none" points = "2000.18,4882.91 2018,4882.91 "  stroke="rgb(0,0,0)" stroke-width="5"  /> 
<polyline fill="none" points = "462.727,4913.45 462.727,4966.91 "  stroke="rgb(0,0,0)" stroke-width="5"  /> 
<polyline fill="none" points = "465.273,4913.45 465.273,4966.91 "  stroke="rgb(0,0,0)" stroke-width="5"  /> 
<polyline fill="none" points = "480.545,4928.73 480.545,4949.09 "  stroke="rgb(0,0,0)" stroke-width="5"  /> 
<polyline fill="none" points = "455.091,4913.45 495.818,4913.45 495.818,4928.73 493.273,4913.45 "  stroke="rgb(0,0,0)" stroke-width="5"  /> 
<polyline fill="none" points = "465.273,4938.91 480.545,4938.91 "  stroke="rgb(0,0,0)" stroke-width="5"  /> 
<polyline fill="none" points = "455.091,4966.91 472.909,4966.91 "  stroke="rgb(0,0,0)" stroke-width="5"  /> 
<polyline fill="none" points = "513.636,4931.27 513.636,4966.91 "  stroke="rgb(0,0,0)" stroke-width="5"  /> 
<polyline fill="none" points = "516.182,4931.27 516.182,4966.91 "  stroke="rgb(0,0,0)" stroke-width="5"  /> 
<polyline fill="none" points = "516.182,4946.55 518.727,4938.91 523.818,4933.82 528.909,4931.27 536.545,4931.27 539.091,4933.82 539.091,4936.36 536.545,4938.91 534,4936.36 536.545,4933.82 "  stroke="rgb(0,0,0)" stroke-width="5"  /> 
<polyline fill="none" points = "506,4931.27 516.182,4931.27 "  stroke="rgb(0,0,0)" stroke-width="5"  /> 
<polyline fill="none" points = "506,4966.91 523.818,4966.91 "  stroke="rgb(0,0,0)" stroke-width="5"  /> 
<polyline fill="none" points = "556.909,4913.45 554.364,4916 556.909,4918.55 559.455,4916 556.909,4913.45 "  stroke="rgb(0,0,0)" stroke-width="5"  /> 
<polyline fill="none" points = "556.909,4931.27 556.909,4966.91 "  stroke="rgb(0,0,0)" stroke-width="5"  /> 
<polyline fill="none" points = "559.455,4931.27 559.455,4966.91 "  stroke="rgb(0,0,0)" stroke-width="5"  /> 
<polyline fill="none" points = "549.273,4931.27 559.455,4931.27 "  stroke="rgb(0,0,0)" stroke-width="5"  /> 
<polyline fill="none" points = "549.273,4966.91 567.091,4966.91 "  stroke="rgb(0,0,0)" stroke-width="5"  /> 
<polyline fill="none" points = "638.364,4913.45 638.364,4956.73 635.818,4964.36 630.727,4966.91 625.636,4966.91 620.545,4964.36 618,4959.27 618,4954.18 620.545,4951.64 623.091,4954.18 620.545,4956.73 "  stroke="rgb(0,0,0)" stroke-width="5"  /> 
<polyline fill="none" points = "635.818,4913.45 635.818,4956.73 633.273,4964.36 630.727,4966.91 "  stroke="rgb(0,0,0)" stroke-width="5"  /> 
<polyline fill="none" points = "628.182,4913.45 646,4913.45 "  stroke="rgb(0,0,0)" stroke-width="5"  /> 
<polyline fill="none" points = "663.818,4931.27 663.818,4959.27 666.364,4964.36 674,4966.91 679.091,4966.91 686.727,4964.36 691.818,4959.27 "  stroke="rgb(0,0,0)" stroke-width="5"  /> 
<polyline fill="none" points = "666.364,4931.27 666.364,4959.27 668.909,4964.36 674,4966.91 "  stroke="rgb(0,0,0)" stroke-width="5"  /> 
<polyline fill="none" points = "691.818,4931.27 691.818,4966.91 "  stroke="rgb(0,0,0)" stroke-width="5"  /> 
<polyline fill="none" points = "694.364,4931.27 694.364,4966.91 "  stroke="rgb(0,0,0)" stroke-width="5"  /> 
<polyline fill="none" points = "656.182,4931.27 666.364,4931.27 "  stroke="rgb(0,0,0)" stroke-width="5"  /> 
<polyline fill="none" points = "684.182,4931.27 694.364,4931.27 "  stroke="rgb(0,0,0)" stroke-width="5"  /> 
<polyline fill="none" points = "691.818,4966.91 702,4966.91 "  stroke="rgb(0,0,0)" stroke-width="5"  /> 
<polyline fill="none" points = "719.818,4913.45 719.818,4966.91 "  stroke="rgb(0,0,0)" stroke-width="5"  /> 
<polyline fill="none" points = "722.364,4913.45 722.364,4966.91 "  stroke="rgb(0,0,0)" stroke-width="5"  /> 
<polyline fill="none" points = "712.182,4913.45 722.364,4913.45 "  stroke="rgb(0,0,0)" stroke-width="5"  /> 
<polyline fill="none" points = "712.182,4966.91 730,4966.91 "  stroke="rgb(0,0,0)" stroke-width="5"  /> 
<polyline fill="none" points = "791.091,4923.64 796.182,4921.09 803.818,4913.45 803.818,4966.91 "  stroke="rgb(0,0,0)" stroke-width="5"  /> 
<polyline fill="none" points = "801.273,4916 801.273,4966.91 "  stroke="rgb(0,0,0)" stroke-width="5"  /> 
<polyline fill="none" points = "791.091,4966.91 814,4966.91 "  stroke="rgb(0,0,0)" stroke-width="5"  /> 
<polyline fill="none" points = "834.364,4913.45 834.364,4928.73 "  stroke="rgb(0,0,0)" stroke-width="5"  /> 
<polyline fill="none" points = "834.364,4923.64 836.909,4918.55 842,4913.45 847.091,4913.45 859.818,4921.09 864.909,4921.09 867.455,4918.55 870,4913.45 "  stroke="rgb(0,0,0)" stroke-width="5"  /> 
<polyline fill="none" points = "836.909,4918.55 842,4916 847.091,4916 859.818,4921.09 "  stroke="rgb(0,0,0)" stroke-width="5"  /> 
<polyline fill="none" points = "870,4913.45 870,4921.09 867.455,4928.73 857.273,4941.45 854.727,4946.55 852.182,4954.18 852.182,4966.91 "  stroke="rgb(0,0,0)" stroke-width="5"  /> 
<polyline fill="none" points = "867.455,4928.73 854.727,4941.45 852.182,4946.55 849.636,4954.18 849.636,4966.91 "  stroke="rgb(0,0,0)" stroke-width="5"  /> 
<polyline fill="none" points = "933.636,4923.64 938.727,4921.09 946.364,4913.45 946.364,4966.91 "  stroke="rgb(0,0,0)" stroke-width="5"  /> 
<polyline fill="none" points = "943.818,4916 943.818,4966.91 "  stroke="rgb(0,0,0)" stroke-width="5"  /> 
<polyline fill="none" points = "933.636,4966.91 956.545,4966.91 "  stroke="rgb(0,0,0)" stroke-width="5"  /> 
<polyline fill="none" points = "982,4913.45 976.909,4938.91 "  stroke="rgb(0,0,0)" stroke-width="5"  /> 
<polyline fill="none" points = "976.909,4938.91 982,4933.82 989.636,4931.27 997.273,4931.27 1004.91,4933.82 1010,4938.91 1012.55,4946.55 1012.55,4951.64 1010,4959.27 1004.91,4964.36 997.273,4966.91 989.636,4966.91 982,4964.36 979.455,4961.82 976.909,4956.73 976.909,4954.18 979.455,4951.64 982,4954.18 979.455,4956.73 "  stroke="rgb(0,0,0)" stroke-width="5"  /> 
<polyline fill="none" points = "997.273,4931.27 1002.36,4933.82 1007.45,4938.91 1010,4946.55 1010,4951.64 1007.45,4959.27 1002.36,4964.36 997.273,4966.91 "  stroke="rgb(0,0,0)" stroke-width="5"  /> 
<polyline fill="none" points = "982,4913.45 1007.45,4913.45 "  stroke="rgb(0,0,0)" stroke-width="5"  /> 
<polyline fill="none" points = "982,4916 994.727,4916 1007.45,4913.45 "  stroke="rgb(0,0,0)" stroke-width="5"  /> 
<polyline fill="none" points = "1032.91,4931.27 1030.36,4933.82 1032.91,4936.36 1035.45,4933.82 1032.91,4931.27 "  stroke="rgb(0,0,0)" stroke-width="5"  /> 
<polyline fill="none" points = "1032.91,4961.82 1030.36,4964.36 1032.91,4966.91 1035.45,4964.36 1032.91,4961.82 "  stroke="rgb(0,0,0)" stroke-width="5"  /> 
<polyline fill="none" points = "1058.36,4913.45 1053.27,4938.91 "  stroke="rgb(0,0,0)" stroke-width="5"  /> 
<polyline fill="none" points = "1053.27,4938.91 1058.36,4933.82 1066,4931.27 1073.64,4931.27 1081.27,4933.82 1086.36,4938.91 1088.91,4946.55 1088.91,4951.64 1086.36,4959.27 1081.27,4964.36 1073.64,4966.91 1066,4966.91 1058.36,4964.36 1055.82,4961.82 1053.27,4956.73 1053.27,4954.18 1055.82,4951.64 1058.36,4954.18 1055.82,4956.73 "  stroke="rgb(0,0,0)" stroke-width="5"  /> 
<polyline fill="none" points = "1073.64,4931.27 1078.73,4933.82 1083.82,4938.91 1086.36,4946.55 1086.36,4951.64 1083.82,4959.27 1078.73,4964.36 1073.64,4966.91 "  stroke="rgb(0,0,0)" stroke-width="5"  /> 
<polyline fill="none" points = "1058.36,4913.45 1083.82,4913.45 "  stroke="rgb(0,0,0)" stroke-width="5"  /> 
<polyline fill="none" points = "1058.36,4916 1071.09,4916 1083.82,4913.45 "  stroke="rgb(0,0,0)" stroke-width="5"  /> 
<polyline fill="none" points = "1106.73,4923.64 1109.27,4926.18 1106.73,4928.73 1104.18,4926.18 1104.18,4923.64 1106.73,4918.55 1109.27,4916 1116.91,4913.45 1127.09,4913.45 1134.73,4916 1137.27,4918.55 1139.82,4923.64 1139.82,4928.73 1137.27,4933.82 1129.64,4938.91 1116.91,4944 1111.82,4946.55 1106.73,4951.64 1104.18,4959.27 1104.18,4966.91 "  stroke="rgb(0,0,0)" stroke-width="5"  /> 
<polyline fill="none" points = "1127.09,4913.45 1132.18,4916 1134.73,4918.55 1137.27,4923.64 1137.27,4928.73 1134.73,4933.82 1127.09,4938.91 1116.91,4944 "  stroke="rgb(0,0,0)" stroke-width="5"  /> 
<polyline fill="none" points = "1104.18,4961.82 1106.73,4959.27 1111.82,4959.27 1124.55,4964.36 1132.18,4964.36 1137.27,4961.82 1139.82,4959.27 "  stroke="rgb(0,0,0)" stroke-width="5"  /> 
<polyline fill="none" points = "1111.82,4959.27 1124.55,4966.91 1134.73,4966.91 1137.27,4964.36 1139.82,4959.27 1139.82,4954.18 "  stroke="rgb(0,0,0)" stroke-width="5"  /> 
<polyline fill="none" points = "1160.18,4931.27 1157.64,4933.82 1160.18,4936.36 1162.73,4933.82 1160.18,4931.27 "  stroke="rgb(0,0,0)" stroke-width="5"  /> 
<polyline fill="none" points = "1160.18,4961.82 1157.64,4964.36 1160.18,4966.91 1162.73,4964.36 1160.18,4961.82 "  stroke="rgb(0,0,0)" stroke-width="5"  /> 
<polyline fill="none" points = "1183.09,4923.64 1185.64,4926.18 1183.09,4928.73 1180.55,4926.18 1180.55,4923.64 1183.09,4918.55 1185.64,4916 1193.27,4913.45 1203.45,4913.45 1211.09,4916 1213.64,4921.09 1213.64,4928.73 1211.09,4933.82 1203.45,4936.36 1195.82,4936.36 "  stroke="rgb(0,0,0)" stroke-width="5"  /> 
<polyline fill="none" points = "1203.45,4913.45 1208.55,4916 1211.09,4921.09 1211.09,4928.73 1208.55,4933.82 1203.45,4936.36 "  stroke="rgb(0,0,0)" stroke-width="5"  /> 
<polyline fill="none" points = "1203.45,4936.36 1208.55,4938.91 1213.64,4944 1216.18,4949.09 1216.18,4956.73 1213.64,4961.82 1211.09,4964.36 1203.45,4966.91 1193.27,4966.91 1185.64,4964.36 1183.09,4961.82 1180.55,4956.73 1180.55,4954.18 1183.09,4951.64 1185.64,4954.18 1183.09,4956.73 "  stroke="rgb(0,0,0)" stroke-width="5"  /> 
<polyline fill="none" points = "1211.09,4941.45 1213.64,4949.09 1213.64,4956.73 1211.09,4961.82 1208.55,4964.36 1203.45,4966.91 "  stroke="rgb(0,0,0)" stroke-width="5"  /> 
<polyline fill="none" points = "1236.55,4913.45 1231.45,4938.91 "  stroke="rgb(0,0,0)" stroke-width="5"  /> 
<polyline fill="none" points = "1231.45,4938.91 1236.55,4933.82 1244.18,4931.27 1251.82,4931.27 1259.45,4933.82 1264.55,4938.91 1267.09,4946.55 1267.09,4951.64 1264.55,4959.27 1259.45,4964.36 1251.82,4966.91 1244.18,4966.91 1236.55,4964.36 1234,4961.82 1231.45,4956.73 1231.45,4954.18 1234,4951.64 1236.55,4954.18 1234,4956.73 "  stroke="rgb(0,0,0)" stroke-width="5"  /> 
<polyline fill="none" points = "1251.82,4931.27 1256.91,4933.82 1262,4938.91 1264.55,4946.55 1264.55,4951.64 1262,4959.27 1256.91,4964.36 1251.82,4966.91 "  stroke="rgb(0,0,0)" stroke-width="5"  /> 
<polyline fill="none" points = "1236.55,4913.45 1262,4913.45 "  stroke="rgb(0,0,0)" stroke-width="5"  /> 
<polyline fill="none" points = "1236.55,4916 1249.27,4916 1262,4913.45 "  stroke="rgb(0,0,0)" stroke-width="5"  /> 
<polyline fill="none" points = "1325.64,4923.64 1328.18,4926.18 1325.64,4928.73 1323.09,4926.18 1323.09,4923.64 1325.64,4918.55 1328.18,4916 1335.82,4913.45 1346,4913.45 1353.64,4916 1356.18,4918.55 1358.73,4923.64 1358.73,4928.73 1356.18,4933.82 1348.55,4938.91 1335.82,4944 1330.73,4946.55 1325.64,4951.64 1323.09,4959.27 1323.09,4966.91 "  stroke="rgb(0,0,0)" stroke-width="5"  /> 
<polyline fill="none" points = "1346,4913.45 1351.09,4916 1353.64,4918.55 1356.18,4923.64 1356.18,4928.73 1353.64,4933.82 1346,4938.91 1335.82,4944 "  stroke="rgb(0,0,0)" stroke-width="5"  /> 
<polyline fill="none" points = "1323.09,4961.82 1325.64,4959.27 1330.73,4959.27 1343.45,4964.36 1351.09,4964.36 1356.18,4961.82 1358.73,4959.27 "  stroke="rgb(0,0,0)" stroke-width="5"  /> 
<polyline fill="none" points = "1330.73,4959.27 1343.45,4966.91 1353.64,4966.91 1356.18,4964.36 1358.73,4959.27 1358.73,4954.18 "  stroke="rgb(0,0,0)" stroke-width="5"  /> 
<polyline fill="none" points = "1389.27,4913.45 1381.64,4916 1376.55,4923.64 1374,4936.36 1374,4944 1376.55,4956.73 1381.64,4964.36 1389.27,4966.91 1394.36,4966.91 1402,4964.36 1407.09,4956.73 1409.64,4944 1409.64,4936.36 1407.09,4923.64 1402,4916 1394.36,4913.45 1389.27,4913.45 "  stroke="rgb(0,0,0)" stroke-width="5"  /> 
<polyline fill="none" points = "1389.27,4913.45 1384.18,4916 1381.64,4918.55 1379.09,4923.64 1376.55,4936.36 1376.55,4944 1379.09,4956.73 1381.64,4961.82 1384.18,4964.36 1389.27,4966.91 "  stroke="rgb(0,0,0)" stroke-width="5"  /> 
<polyline fill="none" points = "1394.36,4966.91 1399.45,4964.36 1402,4961.82 1404.55,4956.73 1407.09,4944 1407.09,4936.36 1404.55,4923.64 1402,4918.55 1399.45,4916 1394.36,4913.45 "  stroke="rgb(0,0,0)" stroke-width="5"  /> 
<polyline fill="none" points = "1427.45,4923.64 1430,4926.18 1427.45,4928.73 1424.91,4926.18 1424.91,4923.64 1427.45,4918.55 1430,4916 1437.64,4913.45 1447.82,4913.45 1455.45,4916 1458,4918.55 1460.55,4923.64 1460.55,4928.73 1458,4933.82 1450.36,4938.91 1437.64,4944 1432.55,4946.55 1427.45,4951.64 1424.91,4959.27 1424.91,4966.91 "  stroke="rgb(0,0,0)" stroke-width="5"  /> 
<polyline fill="none" points = "1447.82,4913.45 1452.91,4916 1455.45,4918.55 1458,4923.64 1458,4928.73 1455.45,4933.82 1447.82,4938.91 1437.64,4944 "  stroke="rgb(0,0,0)" stroke-width="5"  /> 
<polyline fill="none" points = "1424.91,4961.82 1427.45,4959.27 1432.55,4959.27 1445.27,4964.36 1452.91,4964.36 1458,4961.82 1460.55,4959.27 "  stroke="rgb(0,0,0)" stroke-width="5"  /> 
<polyline fill="none" points = "1432.55,4959.27 1445.27,4966.91 1455.45,4966.91 1458,4964.36 1460.55,4959.27 1460.55,4954.18 "  stroke="rgb(0,0,0)" stroke-width="5"  /> 
<polyline fill="none" points = "1506.36,4921.09 1503.82,4923.64 1506.36,4926.18 1508.91,4923.64 1508.91,4921.09 1506.36,4916 1501.27,4913.45 1493.64,4913.45 1486,4916 1480.91,4921.09 1478.36,4926.18 1475.82,4936.36 1475.82,4951.64 1478.36,4959.27 1483.45,4964.36 1491.09,4966.91 1496.18,4966.91 1503.82,4964.36 1508.91,4959.27 1511.45,4951.64 1511.45,4949.09 1508.91,4941.45 1503.82,4936.36 1496.18,4933.82 1493.64,4933.82 1486,4936.36 1480.91,4941.45 1478.36,4949.09 "  stroke="rgb(0,0,0)" stroke-width="5"  /> 
<polyline fill="none" points = "1493.64,4913.45 1488.55,4916 1483.45,4921.09 1480.91,4926.18 1478.36,4936.36 1478.36,4951.64 1480.91,4959.27 1486,4964.36 1491.09,4966.91 "  stroke="rgb(0,0,0)" stroke-width="5"  /> 
<polyline fill="none" points = "1496.18,4966.91 1501.27,4964.36 1506.36,4959.27 1508.91,4951.64 1508.91,4949.09 1506.36,4941.45 1501.27,4936.36 1496.18,4933.82 "  stroke="rgb(0,0,0)" stroke-width="5"  /> 
</svg>

